<?xml version="1.0" encoding="utf-8"?>
<!-- Generator: Adobe Illustrator 25.4.1, SVG Export Plug-In . SVG Version: 6.00 Build 0)  -->
<svg version="1.1" id="Capa_1" xmlns="http://www.w3.org/2000/svg" xmlns:xlink="http://www.w3.org/1999/xlink" x="0px" y="0px"
	 viewBox="0 0 595.3 841.9" style="enable-background:new 0 0 595.3 841.9;" xml:space="preserve">
<style type="text/css">
	.st0{fill:#69529E;}
	.st1{fill:#6454A0;}
	.st2{fill:#944393;}
	.st3{fill:#6D519D;}
	.st4{fill:#9C4091;}
	.st5{fill:#8A4795;}
	.st6{fill:#8F4594;}
	.st7{fill:#B2368A;}
	.st8{fill:#AD398D;}
	.st9{fill:#7D4C99;}
	.st10{fill:#FABB66;}
	.st11{fill:#F9B563;}
	.st12{fill:#724F9B;}
	.st13{fill:#944493;}
	.st14{fill:#A83B8E;}
	.st15{fill:#ED6D3D;}
	.st16{fill:#6E519D;}
	.st17{fill:#6156A1;}
	.st18{fill:#984292;}
	.st19{fill:#A43D8F;}
	.st20{fill:#6354A0;}
	.st21{fill:#A13D8F;}
	.st22{fill:#A13E8F;}
	.st23{fill:#8F4694;}
	.st24{fill:#824A97;}
	.st25{fill:#8A4895;}
	.st26{fill:#AA3B8E;}
	.st27{fill:#E35F4A;}
	.st28{fill:#EE7038;}
	.st29{fill:#864896;}
	.st30{fill:#B83485;}
	.st31{fill:#EC673F;}
	.st32{fill:#EE7539;}
	.st33{fill:#C1377C;}
	.st34{fill:#F3924C;}
	.st35{fill:#F7A85B;}
	.st36{fill:#FBC06A;}
	.st37{fill:#E96543;}
	.st38{fill:#EF7A3D;}
	.st39{fill:#794C99;}
	.st40{fill:#A93B8E;}
	.st41{fill:#F49851;}
	.st42{fill:#F8B161;}
	.st43{fill:#F49B53;}
	.st44{fill:#AB3A8D;}
	.st45{fill:#E66345;}
	.st46{fill:#F18946;}
	.st47{fill:#E46048;}
	.st48{fill:#F6A357;}
	.st49{fill:#D7515C;}
	.st50{fill:#EF793C;}
	.st51{fill:#D14768;}
	.st52{fill:#E05C4E;}
	.st53{fill:#F3954F;}
	.st54{fill:#F8AE5E;}
	.st55{fill:#F18443;}
	.st56{fill:#F07D3F;}
	.st57{fill:#F59D54;}
	.st58{fill:#BF347F;}
	.st59{fill:#BA3484;}
	.st60{fill:#DF5A51;}
	.st61{fill:#D64E60;}
	.st62{fill:#BD3282;}
	.st63{fill:#DB5458;}
	.st64{fill:#DC5656;}
	.st65{fill:#BE3381;}
	.st66{fill:#D8525B;}
	.st67{fill:#F08040;}
	.st68{fill:#DA5359;}
	.st69{fill:#C63D74;}
	.st70{fill:#B53588;}
	.st71{fill:#F28F4A;}
	.st72{fill:#F28B48;}
	.st73{fill:#F7AD5D;}
	.st74{fill:#F7A95B;}
	.st75{fill:#D14867;}
	.st76{fill:#F5A156;}
	.st77{fill:#864996;}
	.st78{fill:#F6A559;}
	.st79{fill:#CA406F;}
	.st80{fill:#B63487;}
	.st81{fill:#754E9A;}
	.st82{fill:#D74F5D;}
	.st83{fill:#B63486;}
	.st84{fill:#B3368A;}
	.st85{fill:#D34B63;}
	.st86{fill:#FCC66E;}
	.st87{fill:#B93485;}
	.st88{fill:#C53C75;}
	.st89{fill:#D54D60;}
	.st90{fill:#C73D73;}
	.st91{fill:#C0347E;}
	.st92{fill:#CB426D;}
	.st93{fill:#CD436B;}
	.st94{fill:#CF4569;}
	.st95{fill:#D24965;}
	.st96{fill:#C83E71;}
	.st97{fill:#D44C62;}
	.st98{fill:#C2387A;}
	.st99{fill:#D34A64;}
	.st100{fill:#BE3380;}
	.st101{fill:#C1377B;}
	.st102{fill:#CE446A;}
	.st103{fill:#C43B76;}
	.st104{fill:#C33A78;}
	.st105{fill:#B0378A;}
	.st106{fill:#764E9A;}
	.st107{fill:#AF388C;}
	.st108{fill:#C43A77;}
	.st109{fill:#E05B4F;}
	.st110{fill:#DD5854;}
	.st111{fill:#834A97;}
	.st112{fill:#754F9B;}
	.st113{fill:#794D9A;}
	.st114{fill:#EE7039;}
	.st115{fill:#DC5755;}
	.st116{fill:#ED6E3C;}
	.st117{fill:#E76345;}
	.st118{fill:#E15D4C;}
	.st119{fill:#DE5952;}
	.st120{fill:#EC683F;}
	.st121{fill:#EA6642;}
	.st122{fill:#654E9B;}
	.st123{fill:#8B4795;}
	.st124{fill:#F08242;}
	.st125{fill:#794D99;}
	.st126{fill:#A33D8F;}
	.st127{fill:#714F9B;}
	.st128{fill:#F28D49;}
	.st129{fill:#ED6A3D;}
	.st130{fill:#F3944E;}
	.st131{fill:#ED6D3C;}
	.st132{fill:#AD398C;}
	.st133{fill:#F59F56;}
	.st134{fill:#DF5A50;}
	.st135{fill:#EE7138;}
	.st136{fill:#EE7238;}
	.st137{fill:#F6A75A;}
	.st138{fill:#AE398C;}
	.st139{fill:#EF7D3E;}
	.st140{fill:#C1367C;}
	.st141{fill:#EF7C3E;}
	.st142{fill:#EF773B;}
	.st143{fill:#E46049;}
	.st144{fill:#C93F6F;}
	.st145{fill:#EF783B;}
	.st146{fill:#EE6F3A;}
	.st147{fill:#C43B77;}
	.st148{fill:#B1378A;}
	.st149{fill:#D14767;}
	.st150{fill:#EC693E;}
	.st151{fill:#DD5755;}
	.st152{fill:#DB5558;}
	.st153{fill:#EB6740;}
	.st154{fill:#EA6641;}
	.st155{fill:#C63C75;}
	.st156{fill:#E15D4D;}
	.st157{fill:#C83E72;}
	.st158{fill:#D24966;}
	.st159{fill:#CD436C;}
	.st160{fill:#D64F5E;}
	.st161{fill:#C2397A;}
	.st162{fill:#BF347E;}
	.st163{fill:#C83D72;}
	.st164{fill:#D8525A;}
	.st165{fill:#CE4469;}
	.st166{fill:#DA5458;}
	.st167{fill:#D04768;}
	.st168{fill:#D74F5E;}
	.st169{fill:#C53B76;}
	.st170{fill:#E66246;}
</style>
<g>
	<path class="st0" d="M437.7,334.6c1.1,3.5,1.9,7.1,2.3,10.7c0,0.4,0.1,0.9,0.2,1.3c0.1,0.6-0.4,0.4-0.6,0.3c-0.5-0.2-0.8-0.6-1.1-1
		c-5.1-5.5-10.5-10.7-16-15.8c-6.7-6.2-13.8-12.1-21-17.7c-7.5-5.9-15.3-11.4-23.4-16.6c-6.9-4.5-13.9-8.7-21.1-12.7
		c-3.3-1.8-6.7-3.5-9.9-5.4c-0.5-0.3-1.3-0.5-1.3-1.3c0.8,0,1.7,0,2.5,0c0.9,0.2,1.7-0.1,2.6,0.2c3.4,0,6.9,0.1,10.3,0.5
		c-0.5,0.4-0.3,0.7,0.2,1c1.7,1,3.4,1.9,5,2.8c11.6,6.7,22.8,14,33.5,21.9c7.2,5.3,14.2,10.8,20.9,16.7c5,4.3,9.9,8.7,14.5,13.4
		C435.9,333.8,436.5,334.7,437.7,334.6z"/>
	<path class="st1" d="M437.7,334.6c-0.1,0.5-0.4,0.6-0.8,0.3c-0.4-0.3-0.9-0.6-1.3-1c-3.4-3.5-7-6.8-10.6-10.1
		c-3.3-2.9-6.6-5.7-10-8.5c-4.4-3.7-8.9-7.2-13.5-10.7c-7.6-5.7-15.4-11-23.4-16c-5.7-3.5-11.4-7-17.2-10.2
		c-0.3-0.2-0.8-0.4-0.7-0.8c0.1-0.5,0.6-0.2,1-0.3c3.4,0.1,6.7,0.4,10,1c13,7.7,25.6,16,37.6,25.2c6.3,4.9,12.5,9.9,18.5,15.2
		c2.5,2.2,5,4.6,7.5,6.8C436,328.5,437,331.5,437.7,334.6z"/>
	<path class="st2" d="M206.5,282.4c4.3-1.5,8.6-2.7,13.1-3.3c11.3,1.9,22.6,4.1,33.7,7c15,3.9,29.6,8.7,43.9,14.6
		c0.5,0.2,1,0.4,1.4,0.8c0.3,0.2,0.8,0.5,0.1,1c-0.4,0.1-0.7,0.2-1.1,0.2c-3.9,0-7.8,0-11.7,0c-0.3,0-0.7,0-1-0.1
		c-4.3-2-8.9-3.4-13.4-4.9c-7.6-2.5-15.4-4.7-23.2-6.7c-9.1-2.3-18.3-4.2-27.5-5.7c-4.1-0.7-8.2-1.3-12.3-1.8
		c-0.5-0.1-1.1-0.1-1.6-0.3C206.6,283,206.3,282.8,206.5,282.4z"/>
	<path class="st3" d="M345.7,276.6c1,1.2,2.5,1.7,3.8,2.4c12.6,6.5,24.8,13.9,36.5,21.9c7.1,4.9,14,10,20.6,15.4
		c4.5,3.6,8.9,7.4,13.2,11.2c6,5.4,11.8,11,17.5,16.8c0.7,0.7,1.4,1.6,2.1,2.3c0.2,0.2,0.4,0.6,0.8,0.1c0.4,1.9,0.7,3.9,0.7,5.8
		c-0.6,0.5-1,0-1.4-0.4c-2.3-2.4-4.5-4.7-6.7-7.1c-2-2.1-4-4.3-6.2-6.2c-0.4-0.4-0.9-0.8-1.3-1.2c-5.7-5.7-11.8-11-18-16.2
		c-9.9-8.2-20.2-15.8-30.9-22.7c-7.4-4.8-15-9.4-22.8-13.6c-4.5-2.4-9-4.8-13.5-7.1c-0.1-0.1-0.3-0.1-0.4-0.2
		c-0.4-0.2-0.8-0.5-0.7-0.9c0.1-0.6,0.7-0.3,1.1-0.3c1.3,0,2.6-0.1,3.9,0.1C344.5,276.5,345.1,276.6,345.7,276.6z"/>
	<path class="st4" d="M191.2,289.4c2.8-1.8,5.7-3.3,8.8-4.5c21.4,2.3,42.5,6.4,63.1,12.7c3.4,1,6.9,2.1,10.3,3.3
		c0.4,0.1,0.9,0.3,1.3,0.5c0.3,0.2,0.8,0.5,0.2,1c-0.5,0.2-1.1,0.2-1.6,0.2c-4.1,0-8.2,0-12.3,0c-4.1,0.3-7.7-1.6-11.5-2.5
		c-7.4-1.8-14.9-3.6-22.4-5c-8.5-1.7-17.1-2.9-25.7-3.9c-2.9-0.3-5.7-0.6-8.6-0.8C192.2,290.2,191.4,290.3,191.2,289.4z"/>
	<path class="st5" d="M241.4,276.9c5.1-0.2,10.2-0.5,15.3-0.5c-0.2,0.7-0.8,0.4-1.1,0.5c7.7,1.9,15.4,4.2,23.1,6.7
		c5.2,1.7,10.4,3.6,15.5,5.5c9.2,3.5,18.3,7.5,27.2,11.8c0.3,0.2,0.7,0.3,1,0.6c0.4,0.3,0.5,0.7-0.1,1c-1.7,0.3-3.4,0.1-5.1,0.1
		c-2,0-4.1,0.1-6.1-0.1c-12.5-6-25.4-10.8-38.6-15c-11.1-3.6-22.4-6.5-33.9-8.8c-0.9-0.2-1.7-0.3-2.5-0.7c-0.5-0.3-0.8-0.6,0-0.8
		c0.9,0,1.8,0,2.7-0.1C239.7,276.8,240.6,277.1,241.4,276.9z"/>
	<path class="st6" d="M236.2,277.1c-0.6,0.5-0.1,0.6,0.2,0.7c1.5,0.4,2.9,0.7,4.4,1c8.2,1.7,16.4,3.8,24.5,6.1
		c5.7,1.6,11.2,3.5,16.8,5.4c7.3,2.5,14.5,5.3,21.6,8.4c2.1,0.9,4.1,1.8,6.2,2.7c0.4,0.2,0.8,0.3,1,0.7c-0.4,0.5-1,0.4-1.5,0.4
		c-2.9,0-5.9,0-8.8,0c-0.5,0-1.1,0-1.5-0.4c-1.2-1.2-2.9-1.5-4.4-2.1c-6.5-2.6-13.1-5.1-19.7-7.3c-9.4-3.1-18.9-5.9-28.6-8.1
		c-8.2-1.9-16.5-3.6-24.8-4.9c-0.7-0.1-1.4-0.1-1.9-0.7c2.2-0.6,4.4-0.8,6.6-1.1C229.5,277.5,232.8,277.2,236.2,277.1z"/>
	<path class="st7" d="M431.9,522.6c-1.4,3-3.1,5.9-5,8.6c-0.6,0.3-0.7-0.2-0.9-0.6c-0.2-0.4-0.2-0.9-0.2-1.4
		c-0.4-18.5-3.7-36.4-9.3-54c-0.4-1.1-0.9-2.3-0.8-3.5c-0.2-4.4,0.3-8.7,0.3-13.1c0-0.4,0-0.8,0.2-1.1c0.2-0.4,0.5-0.3,0.7,0
		c0.3,0.4,0.5,0.9,0.7,1.3c4.4,10.8,7.9,21.9,10.5,33.3c1.7,7.6,3,15.4,3.7,23.2c0.2,2.3,0.7,4.6,0.4,7
		C432,522.4,432,522.5,431.9,522.6z"/>
	<path class="st4" d="M442.5,450.7c0.1,5.5-0.1,10.9-0.3,16.4c-0.6,1.1-0.9,0.2-1-0.2c-0.6-1.4-1-2.9-1.6-4.4
		c-2.5-6.8-5.3-13.5-8.4-20.1c-3.9-8.3-8.3-16.2-13.1-24c-0.6-0.9-1.4-1.7-1.8-2.7c-0.1-3.1-0.4-6.1-0.4-9.1c0.1-5.2,0-10.5,0-15.7
		c0-0.7-0.1-1.3,0.2-2c0.1-0.2,0.2-0.2,0.4-0.2c0.2,0.1,0.3,0.4,0.4,0.6c0.2,3,0.1,6.1,0.1,9.1c-0.1,1.8,0,3.7-0.1,5.5
		c0,0.5,0.1,1,0.4,1.4c4.8,6.5,9,13.5,13,20.6c4,7.1,7.6,14.4,10.8,21.8C441.6,448.6,442,449.7,442.5,450.7z"/>
	<path class="st8" d="M431.9,522.6c-0.2-3.4-0.6-6.9-0.9-10.3c-0.6-5.1-1.4-10.2-2.3-15.3c-0.9-4.9-2.1-9.7-3.5-14.6
		c-2.2-7.8-4.8-15.5-7.8-23.1c-0.3-0.7-0.6-1.4-1-2.2c-0.5-0.4-0.4-1.1-0.4-1.6c0-8.8,0-17.6,0-26.4c0-0.6-0.1-1.2,0.4-1.6
		c0.2,0,0.3,0,0.4,0.2c0.4,1.2,0.2,2.4,0.2,3.6c0,2.7,0,5.3,0,8c-0.1,1.9,0,3.8,0,5.6c0,0.5,0.1,0.9,0.3,1.3
		c8.4,16.9,13.9,34.7,17.4,53.3c0.7,4,1.3,8.1,1.8,12.1C435.2,515.5,433.8,519.1,431.9,522.6z"/>
	<path class="st9" d="M297.5,276.1c8.1,0,16.2,0,24.4,0c2.6,0,5.3-0.1,7.9,0.2c-0.5,0.5-1.1,0.4-1.7,0.4c-2.3,0-4.5,0-6.8,0
		c-3,0.1-6.1,0.1-9.1,0c-0.4,0-0.7,0-1.1,0c-3.4,0-6.7,0-10.1,0c6.5,2.6,12.9,5.2,19.2,8.1c7.9,3.6,15.6,7.4,23.2,11.5
		c3.4,1.9,6.9,3.7,10.1,5.8c0.4,0.2,0.8,0.3,1.2,0.5c0.4,0.2,0.4,0.4,0,0.6c-0.4,0.2-0.8,0.2-1.2,0.2c-3.3-0.4-6.7-0.1-10-0.6
		c-2.9-1.5-5.7-3.1-8.5-4.6c-11.6-6.1-23.7-11.4-35.9-16.2c-4.1-1.6-8.3-3-12.4-4.5c-0.4-0.1-0.8-0.2-1.1-0.5
		c-0.3-0.3-0.5-0.7,0.2-0.8C289.5,276.1,293.5,276.3,297.5,276.1z"/>
	<path class="st10" d="M161.1,517.3c-0.8-1.8-1.5-3.6-2-5.5c0.3-0.3,0.8-0.3,1.2-0.3c8.9,0.5,16.9,3.4,23.2,9.9
		c4.8,4.9,7.4,10.9,7.3,17.9c0,3.5-0.8,6.9-2.3,10.1c-0.2,0.4-0.3,0.8-0.7,1c-1.9-1.1-3.6-2.5-5.3-4c-0.1-0.3,0-0.7,0.1-1
		c2.6-7.5,0.8-14.1-4.4-19.8c-3.1-3.5-7.2-5.6-11.8-6.8c-1.4-0.4-2.8-0.7-4.2-0.8C161.7,517.9,161.3,517.8,161.1,517.3z"/>
	<path class="st11" d="M187.7,550.3c0.9-2.4,2-4.7,2.4-7.2c0.8-4.8,0.3-9.4-1.7-13.9c-1.5-3.3-3.4-6.2-6.1-8.6
		c-4.7-4.2-10.1-6.9-16.3-8c-2.3-0.4-4.6-0.7-6.9-0.8c-0.6-1.4-1-2.8-1.3-4.3c1.6-0.7,3.2-0.4,4.8-0.3c4.7,0.4,9.2,1.5,13.5,3.5
		c4,1.8,7.6,4.2,10.7,7.3c3.7,3.6,6.3,7.8,7.8,12.7c1.9,6.3,1.6,12.5-0.9,18.7c-0.3,0.9-0.7,1.7-1.1,2.5c-0.2,0.4-0.5,0.8-1,0.9
		C190.2,552.1,188.9,551.2,187.7,550.3z"/>
	<path class="st12" d="M321.1,276.3c2.9,0,5.7,0,8.6-0.1c0.9-0.1,1.8-0.1,2.7,0c1.8,1.2,3.7,2.1,5.7,3c4.6,2.1,9,4.5,13.4,6.9
		c6,3.2,11.9,6.7,17.7,10.3c6.4,4.1,12.9,8.2,18.9,12.8c0.4,0.3,1,0.5,0.6,1.3c-0.8,0.1-1.4-0.4-2-0.7c-4.2-2-8.7-3.5-13.3-4.5
		c-0.5-0.1-1-0.1-1.4-0.5c-1.1-1.4-2.6-2-4-2.9c-11.7-7.5-23.9-14.1-36.5-20.1c-3-1.5-6-2.9-9.1-4.2
		C321.9,277.4,320.9,277.4,321.1,276.3z"/>
	<path class="st13" d="M416.6,398.7c0-3.2,0-6.4,0-9.5c0.7-0.1,1,0.5,1.4,0.9c5.9,7.6,11.4,15.4,16.4,23.6c2.9,4.6,5.5,9.4,8.1,14.2
		c0,4.4,0,8.7,0,13.1c-0.9,0-1.1-0.7-1.3-1.3c-1.5-3-2.9-6-4.5-9c-5.6-10.8-12-21.1-19.2-30.8C417.2,399.5,416.9,399.1,416.6,398.7z
		"/>
	<path class="st14" d="M416.6,439.7c0-2.8,0-5.5,0-8.3c0.8-0.1,1,0.6,1.2,1c2.4,4.1,4.5,8.4,6.6,12.7c4,8.4,7.3,17.1,10.2,25.9
		c2.2,6.7,4,13.5,5.5,20.3c0.1,0.4-0.1,1,0.5,1.1c-0.5,4.1-1.1,8.1-2.2,12.1c-0.9,0-0.8-0.7-0.9-1.3c-0.7-4-1.4-8-2.3-12
		c-2.6-12-6.3-23.7-11-35.1C422,450.6,419.4,445.1,416.6,439.7z"/>
	<path class="st15" d="M285.2,565.8c-5.1,0-10.2,0-15.3,0c0-0.2,0-0.3,0.2-0.3c0.8-0.2,1.2-0.7,1.5-1.5c2-6.5,3.4-13.2,3.9-20
		c0.1-1.3-0.1-2.8,0.5-4c0.3-0.2,0.6-0.2,0.9-0.2c2.7,0,5.3,0,8,0c0.5,0,0.9,0,1.3,0.2c0.6,0.5,0.5,1.2,0.5,1.9
		c-0.2,5.4-0.8,10.8-2,16c-0.5,2-1,4.1-1.5,6.1c-0.4,1.3-0.3,1.3,1.1,1.5C284.5,565.3,285,565.1,285.2,565.8z"/>
	<path class="st16" d="M388.7,310.5c-0.9-1.3-2.3-2.1-3.6-3c-7.8-5.5-15.7-10.7-23.9-15.5c-5-2.9-10-5.7-15.1-8.3
		c-4.2-2.1-8.4-4.2-12.6-6.3c-0.5-0.2-1.1-0.3-1.1-1c1.3,0,2.7,0,4,0c4.9,2.2,9.7,4.7,14.4,7.3c7,3.8,13.9,7.7,20.6,12
		c6.6,4.1,13,8.5,19.3,13.1c8.7,6.3,17,13,25,20.1c6.1,5.5,12.1,11.1,17.8,17c2.3,2.5,4.6,4.9,7,7.4c0.3,0.3,0.4,0.6,0.6,0.9
		c0,0.5,0,1,0.1,1.4c0.1,0.2,0.1,0.3,0.1,0.5c0,0.3,0.2,0.7-0.2,0.9c-0.4,0.2-0.7-0.1-1-0.4c-1.5-1.4-2.7-2.9-4.1-4.4
		c-4.4-4.7-8.9-9.4-13.6-13.9c-3.3-3.1-6.7-6.2-10.1-9.2c-3.7-3.3-7.5-6.5-11.5-9.5c-0.3-0.2-0.6-0.3-0.9-0.4
		c-1.4-0.9-2.4-2.3-3.7-3.3c-2.1-1.7-4.2-3.3-6.6-4.5C389.2,311.2,388.8,311,388.7,310.5z"/>
	<path class="st17" d="M380.7,280c4.4,0.8,8.5,2.3,12.7,3.9c16,6.4,28.1,17.1,36.8,31.9c0.3,0.5,0.5,1,0.7,1.4
		c-0.7,0.5-1.2,0-1.6-0.4c-8-7.1-16.3-13.8-24.9-20.1c-7.4-5.4-14.9-10.5-22.7-15.3C381.1,281.2,380.3,281,380.7,280z"/>
	<path class="st18" d="M275.1,302.2c-0.2-0.4-0.7-0.6-1.1-0.7c-10.3-3.5-20.7-6.5-31.2-9c-8.6-2-17.3-3.7-26-5
		c-4.7-0.7-9.4-1.4-14.2-1.9c-0.8-0.1-1.9,0.2-2.6-0.6c2.1-1,4.3-1.8,6.5-2.5c0.4,0.9,1.3,0.6,1.9,0.6c4.1,0.5,8.1,1.2,12.2,1.8
		c6,0.9,11.9,2.1,17.8,3.4c7.6,1.6,15.2,3.6,22.6,5.7c7.5,2.2,15,4.7,22.4,7.4c0.5,0.2,1,0.3,1.3,0.9c-0.3,0.4-0.8,0.4-1.3,0.4
		c-2.3,0-4.7,0-7,0C275.9,302.6,275.5,302.6,275.1,302.2z"/>
	<path class="st12" d="M400.1,319c1.6,0.7,2.9,1.9,4.2,2.9c4.9,3.9,9.5,8,14.1,12.3c4.4,4.1,8.8,8.2,13,12.5c3,3,5.8,6.2,8.7,9.4
		c0.3,0.3,0.5,0.9,1,0.7c0.4-0.2,0.1-0.8,0.2-1.2c0.4,3.1,0.5,6.2,0.5,9.3c0.1,0.1,0.1,0.2,0,0.3c-0.6,0.3-0.9-0.1-1.2-0.5
		c-7.2-8.8-15.2-16.8-23.4-24.7c-2.4-2.3-4.7-4.7-7.5-6.6c-0.7-0.9-1.1-1.9-1.6-2.9c-1.9-3.8-4.3-7.1-7.2-10.2
		C400.5,320,399.8,319.8,400.1,319z"/>
	<path class="st19" d="M181.3,296.6c1.5-1.5,3.2-2.8,5-4c7.1,0.7,14.2,1.3,21.3,2.2c11.7,1.6,23.3,3.8,34.8,6.5
		c0.7,0.2,1.3,0.3,1.9,0.6c0.4,0.2,1,0.2,0.7,0.9c-0.5,0.4-1.2,0.5-1.8,0.5c-4.3,0-8.5,0.3-12.8,0.8c-0.3,0-0.6,0-0.9-0.1
		c-2.7-1-5.6-1.3-8.4-1.8c-7.4-1.4-14.8-2.4-22.2-3.2c-5.4-0.6-10.7-1.1-16.1-1.4C182.3,297.5,181.4,297.7,181.3,296.6z"/>
	<path class="st20" d="M380.7,280c0.3,1.4,1.7,1.6,2.7,2.2c9.1,5.7,17.9,11.8,26.4,18.3c4.6,3.5,9,7.1,13.5,10.7
		c2.2,1.8,4.2,3.7,6.3,5.5c0.4,0.4,0.8,0.5,1.4,0.5c1.4,2.7,2.7,5.5,3.8,8.3c-0.8-0.2-1.4-0.8-2-1.4c-6.2-5.9-12.7-11.3-19.3-16.6
		c-9.2-7.4-18.8-14.2-28.7-20.6c-3.9-2.5-7.9-4.9-11.8-7.3c-0.6-0.4-1.4-0.6-1.7-1.4C374.4,278.6,377.6,279.2,380.7,280z"/>
	<path class="st21" d="M416.6,416c1.4,0.9,1.9,2.4,2.7,3.7c2.9,4.8,5.6,9.6,8.3,14.6c4.8,9.2,9,18.6,12.5,28.4
		c0.5,1.4,1,2.7,1.5,4.1c0.2,0.5,0.3,0.8,0.8,0.3c0,4.3-0.3,8.5-0.5,12.8c-0.9,0.2-0.9-0.6-1-1c-0.7-2.2-1.3-4.4-2-6.6
		c-2.8-8.9-6.1-17.6-10-26c-3.2-6.9-6.7-13.8-10.6-20.4c-0.6-1-1.3-1.8-1.8-2.9c-0.2-2-0.1-4-0.1-5.9
		C416.2,416.7,416.3,416.3,416.6,416z"/>
	<path class="st22" d="M245.2,302.7c-0.7-0.7-1.6-0.7-2.4-0.9c-8.4-2-16.8-3.8-25.3-5.1c-5-0.8-10.1-1.5-15.2-2.2
		c-2.8-0.4-5.7-0.5-8.6-0.8c-2.1-0.2-4.2-0.5-6.3-0.5c-0.4,0-0.8-0.2-1.1-0.6c1.5-1.3,3.1-2.3,4.8-3.2c1.3,0.9,2.7,0.5,4.1,0.7
		c3.5,0.4,7.1,0.8,10.6,1.2c3.2,0.4,6.3,0.8,9.5,1.3c3.5,0.5,7,1.1,10.4,1.8c7.6,1.4,15.1,3,22.5,5c3,0.8,6,1.4,8.9,2.6
		c1,0.4,2.4,0.1,3.6,0.2c-0.3,0.7-0.9,0.6-1.4,0.6c-1.3,0.1-2.7,0.1-4,0c-2.8-0.1-5.7,0.2-8.5,0.3
		C246.4,303.1,245.7,303.2,245.2,302.7z"/>
	<path class="st23" d="M442.5,427.9c-0.9-0.5-1.2-1.4-1.6-2.2c-5.4-10.1-11.5-19.8-18.4-29c-1.6-2.2-3.2-4.4-4.8-6.5
		c-0.3-0.4-0.7-0.7-1.1-1c0-0.2,0-0.3,0-0.5c-0.7-1-0.1-2.2-0.5-3.3c-0.1-1.4-0.2-2.8,0-4.2c0.2-0.5,0.5-0.5,0.9-0.2
		c0.5,0.3,0.8,0.7,1.2,1.1c8.7,10.7,16.7,21.9,23.7,33.8c0.3,0.4,0.4,0.9,0.7,1.3C442.5,420.8,442.5,424.3,442.5,427.9z"/>
	<path class="st24" d="M442.3,380c0.2,0.6,0.1,1.3,0.1,2c0,5.4,0,10.8,0,16.2c-0.8,0.3-1.1-0.4-1.4-0.9c-2.9-4.2-5.8-8.3-8.9-12.3
		c-4-5.2-8.2-10.2-12.5-15.2c-1.3-1.5-2.8-2.9-4.1-4.4c-0.4-2.6-0.4-5.1-0.5-7.7c0.5-0.8,1.1-0.4,1.5,0c1,0.9,1.9,1.8,2.8,2.8
		c7.7,8.4,15,17,21.8,26.2c0.1,0.2,0.2,0.5,0.7,0.5c0-1.9,0-3.8,0-5.7C441.9,381,441.8,380.5,442.3,380z"/>
	<path class="st25" d="M442.5,417.3c-1.4-1.3-2.1-3-3-4.6c-4.6-7.7-9.8-15.1-15.2-22.3c-2.1-2.8-4.2-5.4-6.4-8.1
		c-0.4-0.5-1-1-1.5-1.5c-0.2-0.2-0.3-0.4-0.3-0.6c0-2.4-0.6-4.8-0.2-7.2c0.2-0.6,0.5-0.6,0.9-0.3c0.5,0.4,0.9,0.8,1.4,1.3
		c6.6,7.6,12.8,15.5,18.5,23.8c2.1,3,4.2,6,5.9,9.2C442.5,410.4,442.5,413.9,442.5,417.3z"/>
	<path class="st26" d="M416.6,439.7c0.5,0.3,0.7,0.8,1,1.3c5.5,10.8,10,21.9,13.6,33.5c2.7,8.7,4.9,17.5,6.3,26.5
		c0.1,0.9,0.3,1.9,0.5,2.8c0.1,0.4,0.2,0.6,0.5,0.8c-0.5,2.5-1.2,4.9-2.1,7.3c-0.9-1.4-0.7-3.1-0.9-4.6c-0.7-4.8-1.6-9.5-2.6-14.2
		c-1.7-8-3.9-16-6.5-23.7c-2.2-6.4-4.6-12.6-7.5-18.7c-0.7-1.4-1.2-2.9-2.2-4.2c-0.2-0.2-0.1-0.6-0.1-0.8
		C416.6,443.5,416.6,441.6,416.6,439.7z"/>
	<path class="st9" d="M442.3,380c0,2.3,0,4.6,0,6.9c0,0.4,0.2,0.9-0.2,1c-0.5,0.2-0.6-0.4-0.8-0.6c-2.7-3.6-5.4-7.2-8.2-10.7
		c-2.5-3.1-5.1-6.2-7.8-9.2c-2.8-3.1-5.5-6.2-8.5-9.2c-0.4-0.4-0.7-0.9-1.4-0.8c-0.4-0.3-0.5-0.8-0.5-1.2c-0.2-2.2-0.6-4.5-0.7-6.7
		c0.1-0.4,0.3-0.5,0.6-0.4c0.4,0.1,0.7,0.4,1,0.7c3.7,3.7,7.4,7.5,10.9,11.4c4.9,5.3,9.5,10.9,14,16.5c0.5,0.7,1.1,1.4,1.6,2.1
		C442.3,379.9,442.3,380,442.3,380z"/>
	<path class="st27" d="M307.6,565.8c-1.6,0-3.2,0-4.8,0c-0.4-0.5-0.2-1,0-1.6c1.7-6.4,2.6-12.9,3.1-19.5c0.1-1.1,0-2.3,0-3.4
		c0-0.5,0-1.1,0.4-1.5c1-0.4,2.1-0.2,3.1-0.2c1.7,0,3.4-0.2,5.1,0.2c0.5,0.4,0.4,0.9,0.4,1.4c-0.4,7.4-1.3,14.7-3,21.9
		c-0.6,2.6-0.6,2.6-3.3,2.7C308.3,565.7,307.9,565.6,307.6,565.8z"/>
	<path class="st28" d="M152.9,449.5c0-0.2,0-0.3,0-0.5c-0.2-2.4-0.1-4.9,0-7.3c1.4-0.8,3-0.6,4.5-0.6c6.8-0.1,13.7,0.3,20.5,1.2
		c0.4,0.1,0.7,0.1,1.1,0.4c0.3,0.4,0.3,0.8,0.3,1.2c0,1.9,0,3.8,0,5.6c0,0.4,0,0.8-0.3,1.2c-0.6,0.5-1.3,0.3-1.9,0.2
		c-6.5-0.9-12.9-1.4-19.5-1.3c-1,0-1.9,0-2.9,0.2C154.1,449.9,153.5,449.9,152.9,449.5z"/>
	<path class="st18" d="M416.6,398.7c1.1,0.4,1.5,1.4,2,2.3c5,7,9.7,14.2,14,21.7c2.3,4.1,4.5,8.4,6.7,12.6c0.8,1.5,1.4,3,2.1,4.5
		c0.2,0.5,0.4,0.9,0.9,1.1c0,3.3,0,6.5,0,9.8c-1.1-0.9-1.3-2.3-1.8-3.5c-2.7-6.1-5.6-12.1-8.8-18c-3.8-7-7.9-13.8-12.4-20.4
		c-0.8-1.2-1.5-2.6-2.7-3.6c-0.3-0.2-0.2-0.5-0.2-0.8C416.6,402.5,416.6,400.6,416.6,398.7z"/>
	<path class="st29" d="M442.5,407c-1.2-1.1-2-2.7-2.9-4.1c-3.2-4.9-6.6-9.6-10.1-14.3c-3.6-4.9-7.5-9.5-11.4-14.2
		c-0.6-0.7-1.3-1.3-2-1.9c-0.7-1.6-0.6-3.4-0.7-5.1c0-0.6-0.1-1.2,0.4-1.6c1.5,0.6,2.3,1.9,3.3,3c2.3,2.5,4.4,5.2,6.6,7.8
		c3.4,4,6.6,8.1,9.7,12.4c2,2.8,4,5.6,6,8.5c0.3,0.4,0.5,0.8,1,0.8C442.5,401.1,442.5,404.1,442.5,407z"/>
	<path class="st30" d="M422.4,536.9c-1.1,1.5-2.5,2.7-3.8,4c-0.8-0.1-0.7-0.6-0.6-1.2c0.4-2.9,0.5-5.9-0.1-8.8
		c-0.1-0.5-0.2-1.1-0.1-1.6c0.3-2.5,0-5-0.2-7.4c-0.3-3.6-0.7-7.3-1.1-10.9c-0.5-4-1.4-8-1.9-12c-0.2-1.4-0.8-2.7-0.9-4.2
		c0.2-2.8,0.8-5.5,1.1-8.3c0-0.3,0.2-0.7,0.5-0.8c0.9,0,0.9,0.7,1.1,1.3c1.2,4.5,2.2,9,3.1,13.6c1.1,6.1,2,12.2,2.5,18.4
		c0.3,4,0.7,8.1,0.6,12.2c0,1.3-0.1,2.6,0.2,3.9C422.8,535.7,422.6,536.3,422.4,536.9z"/>
	<path class="st31" d="M285.2,565.8c-0.6-0.4-1.3-0.2-2-0.2c-0.8,0-1.1-0.1-0.9-1.1c0.9-3.3,1.8-6.6,2.4-9.9c0.5-3.1,1-6.2,1.2-9.4
		c0.1-1.7,0.2-3.5,0.2-5.2c0.2-0.3,0.5-0.3,0.8-0.4c1.1,0,2.3,0,3.4,0c1,0.1,2-0.2,3,0.2c0.6,0.7,0.4,1.6,0.4,2.4
		c-0.5,7.1-1.4,14.1-3.3,21c-0.2,0.9-0.3,1.9-1.1,2.6C288,565.8,286.6,565.8,285.2,565.8z"/>
	<path class="st32" d="M276.6,539.9c-0.3,0-0.5,0-0.8,0c-0.5,0.4-1,0.3-1.6,0.3c-1.5,0-3.1,0-4.6,0c-1,0-1.5,0.3-1.5,1.4
		c-0.3,5.6-1.1,11.2-2.5,16.7c-0.5,1.9-1.1,3.7-1.6,5.5c-0.3,1.2-0.3,1.3,1,1.3c1.2,0,2.3,0,3.5,0c0.5,0,1-0.1,1.4,0.4
		c0,0,0,0.1,0,0.1c-4.7,0.1-9.4-0.1-14.1-0.2c-0.2-0.7,0.1-1.4,0.4-2.1c2.5-7.1,4.1-14.3,4.3-21.8c0-0.8,0-1.6,0.7-2.2
		c0.5-0.2,1-0.2,1.5-0.2c4.1,0,8.2,0,12.3,0c0.5,0,1,0,1.5,0.2C276.6,539.6,276.7,539.7,276.6,539.9z"/>
	<path class="st33" d="M404.3,552.5c-1.8,1.2-3.7,2.2-5.7,3.1c-1-0.3-0.7-1.1-0.6-1.7c0.2-2.2,0.4-4.3,0.5-6.5c0.4-6,0.7-12,0.2-18
		c-0.1-1.5,0-3-0.1-4.5c-0.1-0.5,0.1-0.9,0.5-1.2c1.5-1.4,2.8-3,4.1-4.5c0.3-0.3,0.7-0.9,1.1-0.1c0.4,1.8,0.4,3.7,0.6,5.6
		c0.4,5.8,0.4,11.5,0.3,17.3c-0.1,2.8-0.3,5.6-0.5,8.4C404.6,551,404.5,551.8,404.3,552.5z"/>
	<path class="st34" d="M229.4,564.3c-2.4-0.2-4.9-0.4-7.3-1c-0.4-0.5,0-1,0.2-1.4c1.8-3.8,3.3-7.7,4.3-11.9c0.8-3.5,1.3-7,1.5-10.5
		c0-0.6-0.1-1.3,0.7-1.6c1.1-0.3,2.2,0.1,3.4,0.1c1.1,0,2.2,0.3,3.4,0.3c0.4,0,0.8,0.1,1,0.4c-0.9,1-0.9,2.1-1,3.3
		c-0.3,5.8-1.6,11.3-3.7,16.7C231.1,560.6,230.2,562.5,229.4,564.3z"/>
	<path class="st35" d="M205,559c-2.1-0.6-4.1-1.5-6.1-2.4c-0.4-0.7,0.1-1.3,0.4-1.9c2-3.7,3.3-7.6,3.8-11.8c0.4-4,0.4-8-0.6-11.9
		c-0.1-0.6-0.5-1.2-0.1-1.8c1.1,0,1.9,0.8,2.8,1.2c1.3,0.7,2.6,1.5,4,2c0.4,0.2,0.8,0.4,1,0.9c0.5,2.1,0.7,4.3,0.5,6.5
		c-0.3,4.8-1.1,9.5-3.1,13.9C207,555.4,206.2,557.3,205,559z"/>
	<path class="st36" d="M161.1,517.3c1.7,0.4,3.5,0.5,5.2,1c4.5,1.2,8.6,3.4,11.8,6.7c4.3,4.5,6.3,9.8,5.7,16.1
		c-0.2,1.8-0.6,3.5-1.5,5.1c-1.6-1.2-3.1-2.6-4.5-4.1c0.2-2.6,0.4-5.2-0.4-7.7c-1.9-5.5-5.9-8.9-11.2-10.9c-0.9-0.3-1.8-0.5-2.6-0.8
		C162.6,521.1,161.7,519.2,161.1,517.3z"/>
	<path class="st37" d="M289.4,565.8c1.5-5.4,2.7-10.8,3.3-16.4c0.3-3.1,0.7-6.3,0.7-9.5c0.2-0.2,0.4-0.3,0.6-0.3
		c2.2,0,4.3-0.2,6.5,0.1c0.2,0.1,0.4,0.3,0.3,0.5c-0.4,1.4,0,2.9-0.2,4.4c-0.3,2.3-0.5,4.6-0.9,6.9c-0.6,4.3-1.6,8.5-2.6,12.7
		c-0.1,0.6-0.2,1.2-0.7,1.6C294.1,565.8,291.8,565.8,289.4,565.8z"/>
	<path class="st38" d="M261,539.7c-0.4,7.2-1.4,14.3-3.6,21.1c-0.5,1.6-1.1,3.1-1.7,4.7c-2.3,0.1-4.5,0-6.8-0.2
		c-0.5-0.7-0.2-1.3,0.1-1.9c2.4-6.4,4.1-13.1,4.6-19.9c0.1-0.8,0.2-1.6,0.2-2.4c0-1.5,0.2-1.7,1.8-1.8c0.3,0,0.7,0,1,0
		c1,0,2.1,0,3.1,0C260.2,539.3,260.7,539.3,261,539.7z"/>
	<path class="st39" d="M442.3,379.9c-1.7-1.3-2.7-3.1-4.1-4.7c-2.4-3-4.9-6-7.4-8.9c-4.8-5.6-9.8-10.9-15.1-16.1
		c-0.4-0.4-0.8-0.7-1.3-1c-0.3-0.1-0.4-0.4-0.5-0.7c-0.4-2-1-4-1.2-6.1c0.3-0.6,0.7-0.4,1.1-0.2c0.3,0.2,0.5,0.4,0.8,0.7
		c3.7,3.7,7.5,7.4,11.2,11.2c4.8,5,9.3,10.2,13.7,15.5c0.6,0.8,1.3,1.5,1.9,2.3c0.5-0.1,0.3-0.7,0.7-0.9
		C442.4,373.9,442.3,376.9,442.3,379.9z"/>
	<path class="st40" d="M181.3,296.6c0.2,0.4,0.4,0.6,0.9,0.6c2.6,0,5.2,0.3,7.8,0.5c3.9,0.3,7.8,0.7,11.6,1.2
		c3.3,0.4,6.7,0.9,10,1.3c3.8,0.5,7.6,1.2,11.4,1.9c1.6,0.3,3.2,0.6,4.8,0.9c0.6,0.1,1.3,0.2,1.8,0.7c-0.1,0.3-0.4,0.5-0.7,0.5
		c-3.1,0.3-6.1,1.2-9.2,1.6c-7-1.7-14.1-2.4-21.2-3.2c-5.7-0.7-11.5-1-17.2-1.5c-0.9-0.1-1.8,0-2.8-0.1c-0.5,0-1.1,0-1.2-0.8
		C178.6,298.9,179.9,297.7,181.3,296.6z"/>
	<path class="st29" d="M322.6,302.2c-0.2-0.7-0.8-0.8-1.3-1c-7.9-3.8-15.9-7.4-24.1-10.5c-5-1.9-10.1-3.8-15.2-5.5
		c-9-3.1-18.1-5.8-27.3-8.1c-0.1,0-0.2-0.1-0.4-0.3c0.8-0.5,1.7,0.1,2.4-0.4c1.9,0,3.9,0,5.8,0c6.6,1.8,13.2,3.8,19.7,6
		c10.7,3.6,21.3,7.8,31.6,12.5c4.2,1.9,8.2,3.9,12.4,5.8c0.4,0.2,0.9,0.4,1.2,0.7c0.4,0.4,0.6,0.7,0,1.1
		C325.8,302.6,324.2,302.9,322.6,302.2z"/>
	<path class="st41" d="M228.7,538.1c-0.4,0.3-0.3,0.7-0.3,1.1c-0.3,7.4-1.9,14.5-5.1,21.3c-0.4,0.9-0.8,1.8-1.1,2.8
		c-2.2-0.2-4.4-0.6-6.5-1.3c-0.4-0.7,0.1-1.3,0.4-1.8c2.4-4.6,4-9.4,4.9-14.5c0.4-2.4,0.4-4.9,0.6-7.4c0-0.5-0.1-1.1,0.3-1.6
		c0.6-0.3,1.2,0,1.8,0.1c1.3,0.2,2.6,0.4,3.9,0.7C228,537.6,228.5,537.6,228.7,538.1z"/>
	<path class="st42" d="M191.7,552.8c1.9-3.2,3-6.5,3.6-10.2c0.8-5.5-0.1-10.7-2.4-15.7c-1.2-2.5-2.7-4.9-4.6-7
		c-2.9-3.2-6.2-5.9-10-7.9c-3.9-2.1-8.1-3.3-12.4-4.1c-2.7-0.5-5.4-0.5-8.1-0.5c-0.3-0.6-0.5-1.3-0.5-1.9c-0.1-0.7,0.5-0.8,1-0.9
		c0.6-0.1,1.2-0.1,1.8,0c5.7,0.8,11.2,1.6,16.6,3.8c3.9,1.6,7.4,3.8,10.5,6.5c2.9,2.6,5.5,5.5,7.5,9c2,3.7,3.1,7.5,3.9,11.6
		c0.1,0.3,0,0.6-0.1,0.9c-0.4,1.1-0.4,2.4-0.1,3.5c0.4,1.4,0,2.7-0.3,3.9c-0.7,3.2-1.6,6.4-3.2,9.3c-0.2,0.3-0.3,0.7-0.7,0.8
		C193.1,553.8,192.3,553.3,191.7,552.8z"/>
	<path class="st43" d="M154.3,488.2c-0.3-2.1-0.4-4.2-0.5-6.3c2.7-0.6,5.5-0.5,8.2-0.3c4.8,0.2,9.5,0.8,14.2,1.8
		c1.3,0.3,2.5,0.8,3.8,0.7c0.4,0.2,0.5,0.6,0.5,0.9c0.2,2,0.4,3.9,0.4,5.9c-0.3,0.9-1,0.6-1.5,0.5c-1.7-0.4-3.5-0.9-5.2-1.3
		c-5.9-1.4-11.8-1.7-17.8-1.6C155.6,488.5,154.9,488.7,154.3,488.2z"/>
	<path class="st44" d="M177.4,300.3c0.2,0.3,0.5,0.4,0.8,0.4c1.7,0,3.3,0.1,5,0.2c4.1,0.2,8.1,0.6,12.2,1c3.9,0.4,7.8,0.8,11.6,1.3
		c3.8,0.5,7.6,1.2,11.4,1.8c0.5,0.1,0.9,0.6,1.5,0.5c0,0.2-0.1,0.3-0.3,0.4c-2.6,0.8-5.1,1.8-7.8,2.4c-5.4-0.7-10.9-1.6-16.3-2.1
		c-3.8-0.3-7.6-0.7-11.4-0.9c-3-0.2-6-0.4-9-0.5c-0.6,0-1.2,0-1.3-0.8C174.9,302.6,176.1,301.4,177.4,300.3z"/>
	<path class="st45" d="M296.5,565.8c0.8-3.6,1.6-7.1,2.3-10.7c0.4-2.1,0.5-4.2,1-6.3c0.3-1.4-0.2-2.8,0.6-4.1
		c0.3-0.5-0.1-1.4-0.1-2.1c-0.1-0.9,0-1.8,0.5-2.6c1.2-0.8,2.6-0.3,3.9-0.4c0.6,0,1.2-0.1,1.6,0.4c0.1,8.6-1.3,16.9-3.4,25.2
		c-0.1,0.2-0.1,0.4-0.1,0.6C300.7,565.8,298.6,565.8,296.5,565.8z"/>
	<path class="st46" d="M153.3,470.3c0-1.4-0.1-2.8-0.1-4.3c1.1-0.7,2.3-0.6,3.5-0.6c7.4-0.2,14.7,0.4,21.9,1.8
		c0.2,0,0.4,0.1,0.6,0.2c0.2,0.2,0.4,0.4,0.4,0.7c0.2,1.9,0.4,3.8-0.1,5.6c-0.5,0.4-1.1,0.3-1.7,0.2c-7.2-1.5-14.6-2-21.9-1.8
		c-0.1,0-0.3,0-0.4,0C153.5,472.2,153.5,472.2,153.3,470.3z"/>
	<path class="st47" d="M152.8,413.8c0-0.1,0-0.2,0-0.3c0.2-1.5-0.2-3.1,0.2-4.6c0.6-0.5,1.3-0.5,2-0.5c7.5-0.1,15,0,22.5,0.8
		c0.5,0.1,1.1,0.1,1.5,0.6c0.4,2,0.5,3.9-0.1,5.8c-0.5,0.4-1.1,0.4-1.7,0.3c-7.3-0.9-14.6-0.7-21.9-0.7c-0.7,0-1.4,0.1-2.1-0.2
		C152.6,414.8,153,414.2,152.8,413.8z"/>
	<path class="st48" d="M205,559c-0.1-0.6,0.3-1,0.5-1.5c2.1-3.9,3.6-8,4.4-12.3c0.7-4,0.9-8,0.1-12c0.4-0.3,0.8-0.1,1.2,0
		c1.5,0.7,3.1,1.2,4.7,1.7c0.4,0.1,0.9,0.2,1,0.8c-0.3,0.9-0.2,1.7-0.2,2.6c0.1,7.9-2,15.3-5.9,22.2c-0.1,0.1-0.2,0.2-0.2,0.3
		C208.6,560.4,206.8,559.7,205,559z"/>
	<path class="st49" d="M153,384.1c0-1.2,0-2.4,0-3.5c0-0.2,0,0,0-0.1c0.2-2.5,0.2-2.5,2.8-2.5c3.7,0,7.4-0.1,11,0
		c3.5,0.1,7.1,0.3,10.6,0.5c0.6,0,1.2,0.1,1.6,0.5c0.2,0.3,0.3,0.6,0.3,0.9c0.1,2.3,0.1,4.6,0,6.8c0,0.4,0,0.9-0.6,1.1
		c-0.5-0.4-0.4-1-0.4-1.5c0-1-0.5-1.4-1.4-1.4c-1.4,0-2.8-0.2-4.3-0.3c-6-0.3-11.9-0.3-17.9-0.3C154.3,384.5,153.6,384.6,153,384.1z
		"/>
	<path class="st50" d="M152.9,449.5c3.1-0.3,6.2-0.3,9.4-0.2c5.3,0.2,10.7,0.5,15.9,1.5c0.2,0,0.4,0,0.6,0c0.7,0.9,0.3,1.9,0.4,2.9
		c0,0.4,0,0.9,0,1.4c-0.1,0.5,0.1,1.1-0.3,1.6c-0.6,0.4-1.2,0.2-1.8,0.1c-6.2-0.9-12.4-1.3-18.7-1.3c-1,0-2,0-3,0.2
		c-0.8,0.1-1.7,0.3-2.4-0.3C152.9,453.3,152.8,451.4,152.9,449.5z"/>
	<path class="st19" d="M416.6,423.3c1.3,0.8,1.8,2.2,2.4,3.4c3.6,6.2,6.8,12.6,9.8,19c3.9,8.4,7.2,17,10,25.8
		c0.8,2.4,1.5,4.9,2.2,7.3c0.1,0.4,0.1,0.9,0.7,1c0,2.6-0.2,5.2-0.5,7.8c-1-0.2-0.9-1.1-1.1-1.7c-1.3-5.6-2.9-11.1-4.7-16.5
		c-2.7-8.2-5.9-16.2-9.6-24c-2.8-6-5.9-11.8-9.2-17.6c0-0.1,0-0.2-0.1-0.3C416,426.1,416,424.7,416.6,423.3z"/>
	<path class="st51" d="M363.1,564.5c-1.8,0.2-3.7,0.4-5.5,0.3c-0.4-0.5-0.3-1-0.2-1.5c1.1-5.9,1.8-11.9,2.3-17.9
		c0.1-1.7-0.1-3.3,0.2-5c0.1-0.8-0.4-1.1-0.9-1.5c0-0.4,0.4-0.5,0.7-0.6c1.9-0.1,3.8-0.4,5.7-0.4c0.2,0,0.3,0.1,0.5,0.2
		c0.6,1.1,0.4,2.2,0.3,3.3c-0.3,4.2-0.4,8.3-1,12.5c-0.4,3.1-0.8,6.2-1.4,9.3C363.7,563.7,363.7,564.3,363.1,564.5z"/>
	<path class="st52" d="M307.6,565.8c0.8-0.4,1.6-0.2,2.4-0.2c0.7,0,1-0.2,1.2-0.9c0.9-3.8,1.6-7.7,2.2-11.6
		c0.7-4.4,0.9-8.7,1.2-13.1c0.4-0.4,0.9-0.4,1.4-0.4c1.4,0.1,2.7-0.2,4.1,0.2c0.8,1,0.5,2.3,0.4,3.4c-0.5,7.1-1.4,14.1-3,21.1
		c-0.3,1.1-0.6,1.6-1.8,1.5c-0.9-0.1-1.8-0.1-2.7,0.1C311.1,565.8,309.3,565.8,307.6,565.8z"/>
	<path class="st53" d="M179.9,484.1c-0.1,0.5-0.3,0.6-0.8,0.4c-3.4-0.9-6.8-1.6-10.2-2c-4.6-0.5-9.2-1-13.8-0.4
		c-0.5,0.1-0.9,0.1-1.3-0.2c-0.1-1.9-0.3-3.8-0.3-5.8c1.5,0.2,3.1-0.1,4.6-0.1c6.8,0,13.5,0.6,20.1,2.2c0.5,0.1,1.1,0.2,1.5,0.6
		C180.4,480.6,180.6,482.3,179.9,484.1z"/>
	<path class="st54" d="M202.6,529.1c0,1.8,0.8,3.4,0.9,5.2c0.3,3.7,0.3,7.4-0.4,11c-0.6,3.2-1.8,6.2-3.3,9.1
		c-0.3,0.7-0.8,1.3-0.9,2.1c-1.5-0.6-2.9-1.2-4.2-2.1c-0.2-0.6,0.2-1,0.4-1.4c1.9-3.7,3.1-7.6,3.5-11.7c0.6-5.8-0.7-11.3-3.3-16.5
		c-0.3-0.6-0.9-1.3-0.4-2.1c0.4-0.2,0.6,0.1,0.9,0.3c2.1,1.8,4.2,3.7,6.5,5.2C202.5,528.6,202.9,528.7,202.6,529.1z"/>
	<path class="st55" d="M178.8,456.5c0-0.5,0.1-1,0.1-1.6c0.6,0.2,0.6,0.8,0.6,1.2c0,3.4,0,6.8,0,10.2c0,0.4,0,0.8-0.4,1.2
		c-2.1,0.1-4.2-0.6-6.3-0.8c-1.9-0.3-3.9-0.5-5.8-0.6c-3.3-0.2-6.7-0.5-10-0.3c-1.3,0.1-2.6,0.2-3.9,0.3c0,0,0,0,0,0
		c-0.3-1.8,0.1-3.5-0.2-5.3c0-0.1,0-0.2,0-0.3c0.5-0.5,1.1-0.4,1.7-0.4c7.4-0.1,14.8,0.1,22.1,1.3c1.6,0.3,1.7,0.2,1.7-1.5
		C178.5,458.8,178.2,457.6,178.8,456.5z"/>
	<path class="st56" d="M178.8,456.5c0,1.5,0,3.1,0,4.6c0,0.7-0.3,1-1,0.9c-3-0.4-5.9-0.8-8.9-1.2c-1.5-0.2-3-0.3-4.5-0.3
		c-3.8,0-7.7,0-11.5,0c0-1.8,0-3.5,0-5.3c1.6,0.2,3.2-0.3,4.9-0.3c6.8,0,13.5,0.4,20.2,1.5C178.3,456.5,178.6,456.5,178.8,456.5z"/>
	<path class="st57" d="M210.5,560.8c0-0.4,0-0.7,0.2-1.1c2.5-4.4,4.1-9.1,5-14c0.5-2.9,0.7-5.9,0.6-8.8c0-0.4-0.3-1.1,0.5-1.2
		c0.2-0.2,0.4-0.2,0.7-0.2c1.3,0.3,2.6,0.6,3.8,1c0.2,0.1,0.4,0.2,0.5,0.5c0,8.3-1.7,16.1-5.5,23.4c-0.3,0.5-0.7,1.1-0.7,1.7
		C213.8,561.8,212.2,561.4,210.5,560.8z"/>
	<path class="st58" d="M404.3,552.5c-0.4-1.6,0-3.1,0.1-4.7c0.2-2.1,0.2-4.2,0.4-6.3c0.2-3.8,0.2-7.6,0-11.4
		c-0.1-3.9-0.5-7.7-0.8-11.6c-0.2-0.4,0-0.6,0.2-0.9c0.8-1,1.5-2.1,2.2-3.2c0.3-0.4,0.6-1.1,1.2-0.3c0.4,0.9,0.4,1.9,0.5,2.8
		c0.7,7.2,1.2,14.3,1,21.6c-0.1,3.4-0.3,6.9-0.5,10.3c0,0.4-0.1,0.7-0.3,1.1C407.1,550.9,405.7,551.7,404.3,552.5z"/>
	<path class="st59" d="M414.1,494.9c0.6,3.2,1.3,6.3,1.8,9.5c0.3,1.4,0.2,2.9,0.6,4.3c0.3,1,0.3,1.9,0.4,2.9c0.1,1,0.6,2,0.3,3.1
		c-0.2,0.8,0.3,1.5,0.4,2.2c0.2,1.4-0.1,2.9,0.4,4.3c0.2,0.4,0.2,0.8,0.1,1.2c-0.2,0.9-0.3,1.7,0.2,2.6c0.3,0.5,0.2,1,0.1,1.6
		c-0.2,1.7-0.5,3.5,0.2,5.2c0.1,0.2,0.1,0.5,0.1,0.7c-0.2,2.6,0.5,5.2-0.4,7.7c-0.1,0.4,0.1,0.6,0.4,0.8c-0.8,1.2-1.9,2.1-3,3
		c-0.9-0.1-0.8-0.7-0.7-1.3c0.2-4.4,0.2-8.7,0.1-13.1c-0.3-8.4-1.1-16.9-2.6-25.2c-0.1-0.7-0.1-1.3-0.4-2c0.3-2.5,1.1-4.9,1.7-7.3
		C413.7,495,413.9,494.9,414.1,494.9z"/>
	<path class="st60" d="M312.8,565.8c1-0.4,2.1-0.1,3.1-0.2c0.5,0,0.8-0.1,0.9-0.7c1.3-5.1,2.1-10.3,2.7-15.5
		c0.3-3.1,0.7-6.3,0.5-9.5c1.7-0.7,3.5-0.4,5.2-0.2c0.8,1,0.5,2.1,0.4,3.1c-0.4,6.8-1.2,13.6-2.7,20.2c-0.2,0.8-0.3,1.6-0.7,2.3
		c-0.1,0.1-0.2,0.2-0.3,0.3c-1.5,0.1-2.9-0.1-4.4,0.1C316,565.8,314.4,565.8,312.8,565.8z"/>
	<path class="st61" d="M349,565.3c-2.5,0.1-5,0.2-7.5,0.2c0.2-0.6,0.7-0.6,1.1-0.5c1.1,0,1.5-0.5,1.6-1.5c0.8-4.1,1.4-8.2,1.9-12.4
		c0.4-3.5,0.6-7.1,0.8-10.6c0-0.4,0-0.8,0.3-1.2c1.7-0.8,3.3-0.7,5.1-0.3c0.4,0.5,0.4,1.1,0.4,1.7c0,7.8-1.1,15.4-2.5,23
		C350,564.4,349.9,565.1,349,565.3z"/>
	<path class="st62" d="M412.2,502.2c0.8,1.8,0.8,3.8,1.1,5.7c0.5,3.2,0.9,6.5,1.3,9.7c0.2,2.2,0.4,4.5,0.5,6.7
		c0.3,5.8,0.2,11.5,0.3,17.3c0,0.7-0.9,1.6,0.2,2.3c-1.1,1.1-2.2,2.1-3.5,3c-0.7-0.1-0.5-0.6-0.6-1.1c-0.1-1.4,0.2-2.8,0.2-4.1
		c0-4.7,0.1-9.5-0.1-14.2c-0.2-4.4-0.5-8.9-1-13.3c-0.2-1.8-0.2-3.7-0.9-5.4c-0.1-0.5,0.1-1,0.2-1.4c0.6-1.4,1.1-2.8,1.6-4.2
		C411.6,502.9,411.7,502.4,412.2,502.2z"/>
	<path class="st63" d="M334.9,565.6c-4.3,0.3-8.5,0.2-12.8,0.2c-0.1,0-0.1-0.1-0.1-0.1c0,0,0.1-0.1,0.1-0.1l0,0
		c1.2-0.7,2.4-0.3,3.7-0.4c0.8,0,1.5-0.1,2.3,0c1.1,0.1,1.7-0.4,1.9-1.5c0.9-4.3,1.6-8.6,2.1-13c0.4-3.3,0.5-6.6,0.8-9.9
		c0-0.5,0-0.9,0.4-1.3c1.6-0.4,3.3-0.4,4.9,0c0.7,0.9,0.4,2,0.4,3c-0.4,5.2-0.8,10.4-1.7,15.6c-0.4,2.1-0.8,4.2-1.2,6.3
		C335.5,564.9,335.3,565.3,334.9,565.6z"/>
	<path class="st64" d="M153,409c-0.1,1.5,0.2,3-0.2,4.5c0-8.1-0.1-16.2,0.2-24.3c0.6-0.6,1.5-0.6,2.2-0.6c3.9,0,7.7,0,11.6,0
		c0.3,0,0.7,0,1,0.1c1.4,0.4,2.7,0.6,4.2,0.2c0.5-0.2,1.1,0,1.6,0.2c0.7,0.2,1.4,0.2,2.1,0.2c1.2-0.1,2.3,0.2,3.3,0.8
		c0.4,1.5,0.5,3,0,4.5c-1.1,0.6-2.2,0.4-3.3,0.3c-2.5-0.2-4.9-0.5-7.4-0.4c-2.3,0.1-4.5-0.3-6.8-0.3c-2.3,0-4.7,0.3-7,0.3
		c-0.9,0-1.2,0.4-1.2,1.2c0,1.2,0,2.4,0,3.6c0,1.7,0,3.4,0,5c0.1,1.2,0,2.3,0,3.5C153.4,408.2,153.3,408.6,153,409z"/>
	<path class="st62" d="M161.5,323.5c0.4-1.3,1-2.6,1.7-3.8c0.5-0.4,1.2-0.4,1.8-0.4c6.3-0.1,12.6,0.2,18.9,0.7
		c2.3,0.2,4.7,0.4,7,0.6c0.7,0.1,1.3,0.1,1.8,0.7c0.1,0.2,0.2,0.4,0.1,0.6c-0.9,1.4-1.6,2.9-3.2,3.7c-2.8-0.2-5.6-0.4-8.5-0.6
		c-2.3-0.2-4.6-0.3-6.9-0.3c-3.7,0-7.4-0.4-11.1-0.3C162.5,324.4,161.6,324.6,161.5,323.5z"/>
	<path class="st65" d="M409.8,508.7c0.7,0.7,0.6,1.7,0.8,2.6c0.4,3.2,0.8,6.3,1,9.5c0.1,2,0.2,4.1,0.4,6.1c0.3,3.9,0.1,7.8,0.2,11.6
		c0,1.6,0.1,3.1-0.2,4.7c-0.2,1.2-0.2,2.5,0.2,3.8c-1.2,1.1-2.4,2-3.8,2.8c0-3.2,0.3-6.4,0.4-9.6c0.1-3.3,0.3-6.7-0.1-10
		c-0.2-2-0.1-4.1-0.3-6.1c-0.3-3.5-0.5-7-1.1-10.4c-0.2-0.2-0.1-0.5,0-0.7c0.6-1.3,1.3-2.6,2-3.9
		C409.3,508.9,409.5,508.7,409.8,508.7z"/>
	<path class="st66" d="M334.9,565.6c1.9-8.5,3.1-17.2,3.3-25.9c0.6-0.5,1.3-0.3,2-0.4c0.4,0,0.8,0,1.3,0c1.6,0,1.9,0.2,1.9,1.9
		c-0.1,6.2-0.8,12.3-1.8,18.4c-0.3,1.5-0.5,3-0.8,4.4c-0.1,0.5-0.2,1.1-0.7,1.4C338.3,565.6,336.6,565.6,334.9,565.6z"/>
	<path class="st55" d="M243.9,565.1c-1.1,0-2.2-0.1-3.3-0.1c0,0-0.1,0-0.1,0c-2.1-0.2-2.2-0.3-1.4-2.2c2.5-6.1,4.2-12.4,4.7-19
		c0.1-1,0.2-1.9,0.3-2.9c0.1-1.4,0.5-1.7,1.9-1.8c0.6,0,1.2,0,1.8,0c0.6,0,1.2-0.1,1.7,0.3c0.4,0.4,0.4,0.8,0.3,1.3
		c-0.5,8.1-2.1,16-5.3,23.6C244.4,564.5,244.3,564.9,243.9,565.1z"/>
	<path class="st67" d="M243.9,565.1c0.2-1.4,0.9-2.6,1.4-3.9c1.8-4.7,2.9-9.6,3.6-14.6c0.4-2.4,0.4-4.8,0.6-7.2
		c0.3-0.4,0.7-0.4,1.1-0.4c1.6,0,3.1,0,4.7,0c0.5,0,1,0,1.2,0.6c0,0-0.1,0-0.1,0c-2.1,0.1-2,0.1-2.2,2.2c-0.5,6-1.6,12-3.5,17.8
		c-0.6,1.9-1.6,3.7-1.8,5.7c-0.8,0-1.5,0-2.3,0C245.8,565,244.8,565.4,243.9,565.1L243.9,565.1z"/>
	<path class="st68" d="M178.9,389.9c-0.6,0.1-1.2-0.1-1.7-0.3c-0.2-0.1-0.5-0.3-0.7-0.2c-2,0.8-4.1-1.1-6.1,0.2
		c-0.1,0.1-0.4,0.1-0.5,0c-2.6-1.2-5.3-0.6-8-0.7c-1.5-0.1-2.9,0-4.4,0c-1.5,0-3-0.1-4.5,0.3c0-1.7,0-3.4,0-5c3.4,0,6.9,0.1,10.3,0
		c3.4-0.1,6.8,0.3,10.2,0.3c1.2,0,2.5,0.2,3.7,0.2c1.2,0,1.8,0.4,1.6,1.7c-0.1,0.5,0,1.1,0,1.6C179.3,388.6,179.3,389.3,178.9,389.9
		z"/>
	<path class="st69" d="M155,346.9c0.2-1.8,0.4-3.6,0.9-5.3c1.4,0.3,2.8-0.1,4.2-0.1c4.9,0.1,9.7,0.2,14.5,0.4c2,0.1,3.9,0.2,5.9,0.3
		c0.5,0,1.1,0,1.6,0.2c0.2,0.1,0.3,0.4,0.3,0.6c-0.2,1.5-0.6,3-1,4.5c-0.1,0.2-0.3,0.4-0.6,0.4c-2.5-0.6-5.1-0.6-7.6-0.6
		c-5-0.1-10-0.5-15-0.3c-0.6,0-1.2,0.1-1.9,0.2C156,347.3,155.5,347.4,155,346.9z"/>
	<path class="st70" d="M416.1,471.8c-0.1,1.4,0.5,2.6,0.9,3.8c2.9,9,5.2,18.1,6.7,27.5c0.7,4.5,1.3,9.1,1.8,13.7
		c0.4,4.2,0.7,8.4,0.7,12.6c0,0.7-0.1,1.5,0.7,1.8c-0.6,1.1-1.4,2.1-2.2,3c-0.7-0.1-0.7-0.6-0.8-1.1c-0.1-0.5-0.1-1.1-0.1-1.6
		c0-12.4-1.7-24.6-4.2-36.7c-1-4.6-2.1-9.1-3.5-13.6c-0.1-0.4-0.2-0.9-0.7-1.1c-0.2-0.4-0.2-0.8-0.2-1.2c0.3-1.8,0.2-3.7,0.2-5.5
		C415.5,472.7,415.4,472.1,416.1,471.8z"/>
	<path class="st19" d="M416.7,427.9c1.3,0.5,1.4,1.9,2,2.9c6.3,11.2,11.6,22.8,15.9,35c2.3,6.7,4.3,13.5,6,20.4
		c0.1,0.6,0.1,1.2,0.7,1.5c-0.2,1.6-0.3,3.2-0.5,4.8c-0.1,0.2-0.2,0.5-0.3,0.5c-0.3-0.1-0.3-0.4-0.4-0.7c-0.7-3.1-1.4-6.2-2.2-9.3
		c-2.4-9.5-5.6-18.8-9.3-27.8c-2.6-6.3-5.5-12.5-8.6-18.5c-0.9-1.8-1.6-3.8-3.2-5.2C416.6,430.2,416.6,429,416.7,427.9z"/>
	<path class="st71" d="M179.6,478.9c-2.8-0.7-5.7-1.2-8.5-1.6c-2-0.3-3.9-0.6-5.9-0.6c-3.4-0.1-6.8-0.6-10.2,0
		c-0.5,0.1-1.1,0.1-1.4-0.5c-0.1-1.9-0.2-3.9-0.2-5.8c0,1.5,0.9,1.6,2.1,1.5c2-0.1,3.9,0,5.9,0c5.6,0,11.2,0.8,16.7,1.9
		c0.5,0.1,0.9,0.1,1.4,0.1C180.4,475.5,180.2,477.2,179.6,478.9z"/>
	<path class="st72" d="M229.4,564.3c-0.2-1.5,0.9-2.7,1.4-4c2-4.8,3.4-9.8,4.1-15c0.2-1.5,0.4-3.1,0.3-4.6c0-0.8-0.1-1.9,1.3-1.8
		c1.7-0.6,3.3-0.6,5,0c-1.4,0.8-1.1,2.2-1.2,3.5c-0.6,7.1-2.3,13.8-5.1,20.3c-0.4,0.8-0.1,1.4,0.3,2
		C233.4,564.7,231.4,564.6,229.4,564.3z"/>
	<path class="st73" d="M156.8,504c-0.4-1.1-0.6-2.3-0.8-3.5c0.9-0.6,1.9-0.4,2.8-0.4c5.3,0,10.4,0.7,15.5,2.2
		c2.9,0.9,5.7,2.1,8.4,3.5c0.6,0.3,1.2,0.7,1.9,0.6c0.3,0,0.5,0.3,0.6,0.5c1.1,2.4,2.1,4.8,3.3,7.1c0.1,0.1,0,0.2,0,0.4
		c-0.7,0.7-1.2,0-1.6-0.4c-1.9-1.5-3.8-2.8-5.9-4c-4.4-2.5-9.1-4.1-14.1-4.9c-3.1-0.5-6.1-0.7-9.2-0.7
		C157.3,504.4,157,504.5,156.8,504z"/>
	<path class="st46" d="M235.4,564.8c-1-0.2-1.3-0.5-0.8-1.7c2-4.7,3.6-9.5,4.5-14.5c0.4-2.6,0.9-5.2,0.9-7.8c0-1.3,0.4-1.8,1.6-1.6
		c1-0.6,2-0.3,3-0.4c0.7,0,1.4,0,2.1,0c0.4,0,0.9,0,1.1,0.6c-0.7,0-1.3,0.1-2,0c-1-0.1-1.3,0.4-1.3,1.3c-0.3,7.8-2,15.3-5.1,22.5
		c-0.6,1.3-0.6,1.3,1.3,1.8C238.9,565.1,237.2,564.9,235.4,564.8z"/>
	<path class="st74" d="M184.6,506.5c-0.2,0.9-0.7,0.3-1,0.1c-2.5-1.2-4.9-2.5-7.5-3.4c-3-1-6.1-1.7-9.3-2.3
		c-2.6-0.5-5.3-0.4-7.9-0.6c-0.9-0.1-1.9,0.1-2.9,0.1c-0.4-1.3-0.6-2.7-0.7-4c0.4-0.4,0.9-0.3,1.4-0.4c7.6-0.4,14.9,0.8,22,3.3
		c1.4,0.5,2.7,1.1,4.1,1.6c0.2,0.1,0.4,0.2,0.5,0.4C183.9,503.1,184.5,504.7,184.6,506.5z"/>
	<path class="st75" d="M153.5,367.5c0-1.6-0.1-3.2,0.2-4.8c0.5-0.4,1.1-0.4,1.7-0.4c4.6,0,9.3-0.1,13.9,0c3.1,0.1,6.3,0.3,9.4,0.5
		c0.3,0,0.7,0.1,1,0.3c0.5,1.7,0.8,3.4-0.2,5c-0.8,0.3-1.7,0.1-2.5,0c-7.6-0.5-15.1-0.5-22.7-0.5C154,367.7,153.7,367.7,153.5,367.5
		z"/>
	<path class="st76" d="M154.3,488.2c2.1,0,4.3,0,6.4,0c6.3,0,12.5,1.1,18.5,2.8c0.5,0.1,1,0.7,1.5-0.1c0.2,0,0.4,0.1,0.4,0.3
		c0.4,1.7,0.8,3.4,0.6,5.1c-0.6,0.4-1.2,0.2-1.8,0c-5.3-1.9-10.7-2.9-16.3-3.4c-2.3-0.2-4.7,0-7-0.1c-0.6,0-1.3,0.1-1.8-0.4
		C154.4,491,154.3,489.6,154.3,488.2z"/>
	<path class="st77" d="M327.6,302.2c0-0.6-0.5-0.7-0.9-0.9c-6.8-3.2-13.6-6.5-20.6-9.5c-9.5-4-19.2-7.6-29-10.8
		c-4.4-1.4-8.8-2.6-13.2-3.9c-0.5-0.2-1-0.3-1.4-0.7c3.7-0.1,7.4-0.2,11.2-0.2c7.9,0,15.8,0,23.7,0c-0.4,0.3-0.9,0.2-1.3,0.2
		c-3.7,0-7.3,0-11,0c-0.4,0.3-0.8,0.3-1.3,0.3c-4.8,0-9.7,0-14.6,0c3.1,0.9,6.1,1.9,9,2.8c13.7,4.4,27.1,9.7,40.2,15.7
		c4,1.8,7.9,3.9,11.8,5.8c0.5,0.2,1.4,0.4,0.7,1.4C329.9,302.6,328.7,302.8,327.6,302.2z"/>
	<path class="st78" d="M154.7,492.4c1.4,0,2.8,0,4.3,0c7.1-0.1,13.9,1,20.5,3.4c0.7,0.2,1.3,0.5,2.1,0.4c0.3,0.2,0.5,0.5,0.5,0.8
		c0.2,1.4,0.8,2.8,0.7,4.2c-0.4,0-0.8-0.1-1.2-0.2c-4.9-2.2-10.2-3.5-15.5-4.3c-3.6-0.5-7.3-0.3-10.9-0.3
		C155,495.1,154.7,493.8,154.7,492.4z"/>
	<path class="st79" d="M378.9,562.3c-1.4,0.4-2.8,0.7-4.3,0.8c-0.3-0.4-0.2-0.8-0.1-1.2c1.3-8.3,2.1-16.6,2-24.9
		c0-0.2,0-0.4,0.1-0.6c0.2-0.5,0.6-0.8,1.1-0.9c1.1-0.2,2.1-0.9,3.2-0.7c0.4,0.1,0.5,0.4,0.5,0.8c0.1,1.7,0.2,3.4-0.1,5
		c-0.2,0.9-0.3,1.7-0.2,2.6c0.1,1,0.1,2.1-0.1,3.1c-0.3,1.4-0.2,2.8-0.3,4.2c-0.3,3.3-0.7,6.5-1.2,9.8
		C379.4,560.9,379.8,561.8,378.9,562.3z"/>
	<path class="st80" d="M415.7,480.1c0.7-0.2,0.6,0.4,0.7,0.7c1.3,4.1,2.3,8.3,3.2,12.4c0.9,3.6,1.5,7.2,2.1,10.9
		c0.6,3.6,1.1,7.2,1.5,10.8c0.6,5.9,1.1,11.8,1,17.7c0,0.5,0.1,1.1,0.5,1.5c-0.6,1-1.4,1.9-2.3,2.8c-0.1-2-0.3-4.1-0.3-6.1
		c0.1-5.2-0.5-10.3-1-15.4c-0.5-5.3-1.3-10.5-2.3-15.8c-0.8-4.3-1.8-8.6-3-12.9c-0.1-0.4-0.1-0.8-0.6-0.8c-0.4-0.5-0.3-1.1-0.2-1.7
		c0.2-0.5,0.2-1,0.1-1.5C415.3,481.9,414.9,480.9,415.7,480.1z"/>
	<path class="st81" d="M409.8,333.4c1.6,0.5,2.6,1.9,3.7,2.9c5.8,5.2,11.3,10.8,16.7,16.4c3.7,3.9,7.4,7.9,10.7,12.2
		c0.2,0.2,0.4,0.4,0.7,0.4c0.4,0.8,0,1.7,0.2,2.5c0,0.6,0,1.2,0,1.8c-0.9,0-1.3-0.7-1.7-1.3c-3.3-4-6.7-7.9-10.2-11.7
		c-3.5-3.7-6.9-7.5-10.6-11c-2.2-2-4.2-4.2-6.5-6.1c-0.4-0.3-0.8-0.5-1.3-0.8c-0.9-1.5-1.4-3.2-2-4.8
		C409.6,333.7,409.7,333.5,409.8,333.4z"/>
	<path class="st82" d="M340,565.5c0.9-3.9,1.5-7.9,2-11.9c0.5-4,0.9-8.1,1-12.2c0-2,0.2-1.8-1.8-1.8c-0.3,0-0.7,0-1,0
		c0.1-0.5,0.5-0.5,0.9-0.6c1.9-0.1,3.7-0.1,5.6,0c0.2,0,0.5,0.1,0.7,0.3c-0.1,5.1-0.5,10.2-1.2,15.2c-0.4,3.1-1,6.2-1.5,9.3
		c-0.2,1.1-0.6,1.4-1.6,1.4c-0.5,0-1-0.2-1.4,0.2C341,565.5,340.5,565.5,340,565.5z"/>
	<path class="st83" d="M165.2,315.9c0.5-1.1,1.2-2.2,1.9-3.2c0.4-0.3,0.8-0.4,1.3-0.3c3.8,0.3,7.7,0.2,11.5,0.4
		c6,0.4,12.1,0.9,18.1,1.6c0.5,0.1,0.9,0.2,1.3,0.4c0.2,0.2,0.2,0.4,0.1,0.5c-1.1,1.1-2,2.3-3.6,2.9c-2.1,0-4.2-0.4-6.4-0.5
		c-3.3-0.2-6.7-0.5-10-0.7c-4.3-0.2-8.6-0.4-12.9-0.5C166.1,316.6,165.3,316.8,165.2,315.9z"/>
	<path class="st84" d="M168.1,311.2c0.7-1.2,1.5-2.3,2.4-3.3c0.3-0.2,0.7-0.3,1.1-0.3c1.9,0.3,3.8,0.1,5.8,0.2
		c8.7,0.5,17.3,1.2,26,2.3c0.7,0.1,1.4,0.1,2,0.5c0.4,0.4,0.2,0.7-0.1,0.9c-1.3,0.7-2.3,1.8-3.8,2.2c-3.5-0.2-7-0.8-10.5-1
		c-4.4-0.3-8.8-0.7-13.3-0.9c-2.8-0.1-5.6-0.3-8.4-0.2C168.9,311.6,168.4,311.6,168.1,311.2z"/>
	<path class="st85" d="M349,565.3c0.9-0.7,0.8-1.8,1-2.7c0.8-4.5,1.5-8.9,1.8-13.5c0.3-3.3,0.5-6.6,0.5-9.9c0.5-0.5,1.2-0.4,1.8-0.4
		c0.1,0,0.3,0,0.4,0c2.5,0,2.6,0.2,2.5,2.7c-0.4,7.3-1.1,14.6-2.5,21.8c-0.1,0.6-0.2,1.3-0.6,1.7C352.2,565.2,350.6,565.4,349,565.3
		z"/>
	<path class="st86" d="M163.6,522.8c0.3-0.2,0.7-0.2,1.1-0.1c5.2,1.5,9.4,4.4,12.1,9.2c1.6,2.9,1.8,6.1,1.6,9.4
		c0,0.3-0.3,0.6-0.5,0.9C172,536.5,167.1,530.2,163.6,522.8z"/>
	<path class="st87" d="M165.2,315.9c0.3,0.5,0.7,0.3,1.1,0.3c3.6,0.1,7.2,0.1,10.8,0.3c4.8,0.3,9.5,0.6,14.3,1
		c1.6,0.1,3.2,0.3,4.8,0.5c-1,1.5-2,2.9-3.6,3.8c-0.2-0.5-0.7-0.7-1.2-0.8c-2.3-0.2-4.6-0.3-6.8-0.5c-7.1-0.6-14.3-0.8-21.5-0.8
		C163.8,318.4,164.4,317.1,165.2,315.9z"/>
	<path class="st88" d="M390.2,559c-1.2,0.6-2.5,1-3.8,1.3c-0.5-0.5-0.4-1.1-0.3-1.7c0.8-6.2,1.4-12.4,1.5-18.7c0-2.6,0.2-5.2,0-7.8
		c0.9-1.4,2.4-1.8,3.8-2.4c0.2-0.1,0.4,0.1,0.5,0.3c0.1,0.2,0.2,0.5,0.2,0.7c-0.1,4.8,0.1,9.5-0.1,14.3c-0.3,4-0.6,8.1-1.1,12.1
		C390.8,557.9,390.6,558.5,390.2,559z"/>
	<path class="st89" d="M179.1,379.1c-3-0.3-6.1-0.3-9.1-0.6c-4.9-0.4-9.9-0.1-14.8-0.2c-1.8,0-1.8,0-2,1.8c0,0.2-0.1,0.3-0.2,0.4
		c-0.1-2,0-4,0.2-6c1.4-0.6,2.9-0.7,4.4-0.8c2.5-0.3,5.1-0.3,7.6,0c1.9,0.2,3.7,0.4,5.6,0.4c2.5-0.1,4.9,0.2,7.3,0.5
		c0.4,0,0.8,0.1,1,0.4C179.6,376.4,179.8,377.8,179.1,379.1z"/>
	<path class="st90" d="M388,531.9c0.3,1.7,0.4,3.5,0.2,5.2c-0.4,5.1-0.3,10.2-0.9,15.3c-0.3,2.6-0.8,5.2-0.8,7.8
		c-1.4,0.6-2.8,0.9-4.3,1.2c-0.2-0.4,0-0.8,0-1.2c0.8-5.9,1.4-11.9,1.7-17.9c0.1-2.8,0.2-5.7,0.2-8.5c0-0.2,0-0.5,0.2-0.6
		C385.5,532.8,386.5,531.7,388,531.9z"/>
	<path class="st91" d="M158.8,330.8c0.3-1.5,0.9-2.9,1.5-4.3c0.8,0.3,1.6,0.4,2.5,0.4c4.9-0.1,9.8,0,14.7,0.3
		c3.5,0.2,7,0.2,10.5,0.9c0.1,0.1,0.4,0.2,0.3,0.3c-0.6,1.4-0.8,2.9-2.3,3.7c-2.1,0.3-4.1-0.2-6.1-0.3c-2.7-0.1-5.4-0.5-8.1-0.4
		c-4,0.1-8-0.5-12-0.2C159.2,331.4,158.8,331.4,158.8,330.8z"/>
	<path class="st92" d="M376.9,536.1c0.1,3.6,0,7.1-0.3,10.6c-0.4,5.5-1,10.9-2,16.3c-1.4,0.4-2.8,0.6-4.3,0.7
		c1-5.1,1.6-10.3,2.1-15.5c0.3-3.4,0.4-6.8,0.3-10.2c0-0.3-0.1-0.6-0.2-0.8c0-0.1,0-0.3,0.1-0.3
		C374.1,536.4,375.4,535.7,376.9,536.1z"/>
	<path class="st93" d="M372.6,537.2c0.3,0,0.6-0.1,0.6,0.5c0,4.7-0.2,9.5-0.7,14.2c-0.4,3.4-0.9,6.8-1.3,10.2
		c-0.1,0.6-0.2,1.2-0.7,1.6c-1.3,0.2-2.7,0.3-4,0.5c1.1-3.6,1.4-7.4,1.9-11.1c0.6-4.8,0.7-9.6,1-14.4c0-0.4,0-0.8,0.2-1.1
		C370.4,537,371.4,536.7,372.6,537.2z"/>
	<path class="st94" d="M369.6,537.7c-0.3,4.9-0.4,9.9-1,14.8c-0.4,3.6-0.9,7.2-1.5,10.8c-0.1,0.6-0.4,0.7-0.8,1
		c-1.1,0.1-2.2,0.4-3.3,0.3c0.7-2.3,0.9-4.7,1.3-7.1c0.6-3.7,0.9-7.4,1.2-11.1c0.2-2.7,0.2-5.4,0.3-8.1
		C367,537.5,368.3,537.2,369.6,537.7z"/>
	<path class="st95" d="M353.8,565c0.4-2.3,0.8-4.7,1.1-7c0.5-3.3,1-6.6,1.1-10c0.1-2.4,0.3-4.9,0.5-7.3c0.1-1.3-0.4-1.8-1.6-1.6
		c-0.3,0.1-0.7,0-1,0c0-0.2,0.2-0.4,0.4-0.4c1.6-0.2,3.1-0.5,4.6,0.2c1.2-0.2,1.4,0.4,1.3,1.5c-0.5,8-1.1,15.9-2.7,23.7
		c-0.1,0.2,0,0.5,0,0.8C356.3,565.1,355,565.1,353.8,565z"/>
	<path class="st96" d="M384.2,533.6c0.4,0.3,0.3,0.8,0.3,1.3c0.2,3.6-0.1,7.2-0.3,10.7c-0.2,4.9-0.8,9.7-1.5,14.6
		c-0.1,0.4-0.3,0.9-0.5,1.3c-1.1,0.4-2.2,0.6-3.3,0.8c0.5-0.9,0.1-2,0.4-3c0.3-0.9,0.4-1.9,0.4-2.9c0-1.2,0.5-2.2,0.4-3.4
		c-0.1-1.1,0.2-2.3,0.4-3.5c0-0.2,0.2-0.4,0.2-0.6c-0.5-2.2,0.8-4.5,0-6.7c-0.3-0.7,0.4-1.3,0.4-2c0.1-1.6,0-3.3,0-4.9
		c0-0.1-0.2-0.3-0.3-0.4C381.8,533.9,382.9,533.5,384.2,533.6z"/>
	<path class="st97" d="M179.1,375.1c-2.2-0.5-4.4,0.1-6.6-0.7c-0.6-0.2-1.4,0.1-2.1,0.2c-3.6,0.1-7.1-0.7-10.7-0.6
		c-2.2,0.1-4.3,0.9-6.6,0.6c0-1,0-2,0-3c0.1-0.4,0.3-0.7,0.7-0.8c1.2-0.2,2.3-0.6,3.6-0.6c2.6,0.1,5.2,0,7.8,0
		c0.8,0,1.7,0.1,2.5,0.3c1.3,0.3,2.6,0.2,3.9,0.1c0.8-0.1,1.5-0.1,2.2,0.1c0.7,0.3,1.4,0.2,2.1,0.2c0.3,0,0.7-0.1,1-0.1
		c1.8,0.1,2.5,0.7,2.5,2.5c0,0.5,0,0.9-0.1,1.4C179.3,374.8,179.3,375,179.1,375.1z"/>
	<path class="st98" d="M398.7,524.3c0.2,0.3,0.3,0.7,0.3,1.1c0.2,5.2,0.4,10.4,0.2,15.6c-0.2,4.2-0.3,8.4-0.9,12.5
		c-0.1,0.6-0.3,1.4,0.3,2c-1,0.6-2.1,1.1-3.3,1.5c-0.8-0.1-0.5-0.8-0.5-1.2c0.1-2.3,0.4-4.5,0.6-6.7c0.3-3.6,0.5-7.2,0.4-10.8
		c-0.1-3.8,0.1-7.5-0.1-11.3C396.3,525.7,397.3,524.7,398.7,524.3z"/>
	<path class="st42" d="M156.8,504c1.6,0.1,3.2,0.2,4.8,0.2c5.5,0.2,10.7,1.4,15.8,3.6c3.7,1.6,7,3.7,10.2,6.2
		c0.2,0.2,0.5,0.7,0.9,0.2c0.6,0,0.7,0.5,1,0.9c1.6,2.4,3.3,4.6,5.3,6.7c0.3,0.3,0.7,0.5,0.5,1c-0.4,0.5,0,1,0.2,1.4
		c1.8,3.4,2.9,7,3.5,10.8c0.6,4,0.1,7.9-0.9,11.7c-0.7,2.8-1.8,5.4-3.3,7.8c-0.3-0.1-0.5-0.3-0.8-0.4c0.6-1.8,1.8-3.4,2.3-5.3
		c0.6-2,1.1-4.1,1.6-6.1c0.4-1.5-0.3-2.8-0.1-4.2c0.7-3.8-0.5-7.3-1.8-10.6c-1.1-2.7-2.6-5.3-4.4-7.7c-1.3-1.7-2.9-3.1-4.3-4.6
		c-1.6-1.6-3.7-2.8-5.6-4.1c-4.3-2.8-9.1-4.2-14-5.2c-1.7-0.4-3.5-0.8-5.3-0.7c-1.2,0-2.4-0.5-3.6-0.4c-0.5,0-1,0-1.3,0.6
		C156.9,505.1,156.8,504.6,156.8,504z"/>
	<path class="st99" d="M179.2,374.9c0-0.5,0-1.1,0-1.6c0-1.7-0.9-2.3-2.6-2.1c-1,0.2-2,0.3-3-0.3c-0.4-0.3-1-0.1-1.5,0
		c-1.6,0.2-3.3,0.5-4.9-0.2c-0.1-0.1-0.2-0.1-0.4-0.1c-3.5,0-6.9-0.1-10.4,0.1c-1,0.1-2.2,0-3.1,0.9c-0.1-1.3,0-2.7,0.2-4
		c0.5-0.3,1-0.3,1.5-0.3c4.3,0,8.7-0.1,13,0c3.4,0.1,6.9,0.4,10.3,0.5c0.4,0,0.7,0.2,1.1,0.2c0.4,0.4,0.3,0.9,0.4,1.4
		c0,1.4,0,2.7,0,4.1C179.7,374,179.8,374.6,179.2,374.9z"/>
	<path class="st100" d="M188.1,328.3c-3.3-0.2-6.6-0.5-9.8-0.7c-0.3,0-0.5,0-0.8,0c-5.3-0.3-10.6-0.3-15.9-0.3
		c-0.6,0-1.2,0.1-1.3-0.7c0.3-1.1,0.7-2.1,1.2-3.1c0.2,0.5,0.7,0.6,1.2,0.5c4.1-0.1,8.2,0.2,12.2,0.3c4.8,0.1,9.6,0.6,14.4,1
		c0.2,0,0.4,0.2,0.6,0.2C189.8,326.8,189,327.6,188.1,328.3z"/>
	<path class="st101" d="M158.8,330.8c0.6,0.6,1.2-0.1,1.8,0c1.6,0.1,3.2-0.1,4.7,0.2c0.7,0.2,1.5,0.1,2.3,0
		c6.3-0.2,12.5,0.5,18.7,0.8c0,1.4-0.4,2.6-1.6,3.4c-8.5-0.4-16.9-1-25.4-0.8c-0.5,0-1,0-1.4-0.4C157.9,333,158.3,331.9,158.8,330.8
		z"/>
	<path class="st102" d="M179.6,363.3c-8.6-0.5-17.3-0.6-25.9-0.5c0-1.1,0.1-2.2,0.1-3.3c0.5-0.5,1.1-0.4,1.7-0.4
		c5.2,0,10.4-0.1,15.7,0c2.3,0.1,4.7,0.1,7,0.4c1.8,0.2,1.8,0.3,1.9,2.1C180,362.2,180.1,362.8,179.6,363.3z"/>
	<path class="st16" d="M441.2,354.2c-2.5-2.4-4.7-5-7.2-7.5c-3.3-3.4-6.5-6.8-10.1-10c-1.6-1.4-3-2.9-4.6-4.3
		c-4.7-4.3-9.6-8.5-14.6-12.6c-9.4-7.8-19.4-14.9-29.6-21.5c-6-3.9-12.2-7.6-18.4-11.1c-6.4-3.6-12.8-6.9-19.3-10.1
		c-0.4-0.2-0.8-0.3-1-0.7c2.5,0,4.9-0.1,7.4,0.2c-1.3,0-2.5,0-3.8,0c-0.3,0-0.9-0.2-1,0.3c-0.1,0.4,0.4,0.5,0.7,0.6
		c2,1.1,4.1,2.1,6.1,3.2c8.8,4.5,17.4,9.5,25.9,14.8c9.3,5.8,18.2,12.1,26.9,18.7c4.4,3.4,8.7,6.8,12.9,10.5c2.2,2,4.5,4,6.7,6
		c2.3,2.1,4.7,4.3,7,6.4c2.3,2.1,4.5,4.2,6.7,6.5c2.6,2.7,5.2,5.5,7.7,8.2c0.4,0.4,0.7,0.8,1.4,0.7
		C441.2,353,441.2,353.6,441.2,354.2z"/>
	<path class="st93" d="M179.7,361.8c0-1,0.2-1.8-1.4-1.9c-8.1-0.7-16.3-0.3-24.4-0.4c-0.1-1.1,0.2-2.2,0.2-3.3
		c0.5-0.5,1.1-0.4,1.7-0.4c4.2,0,8.5-0.1,12.7,0c3.4,0.1,6.8,0.3,10.2,0.5c1,0.1,1.7,0.4,1.7,1.6c0.1,0.9,0,1.8,0,2.7
		C180.2,361.1,180.3,361.6,179.7,361.8z"/>
	<path class="st103" d="M182.3,342.7c-5.5-0.1-11.1-0.5-16.6-0.6c-2.9-0.1-5.7-0.1-8.6,0.1c-0.5,0-1.1,0.2-1.2-0.5
		c0-0.9,0.2-1.8,0.6-2.7c0.5-0.4,1.1-0.4,1.7-0.4c6,0,12-0.1,17.9,0.3c2.3,0.2,4.6,0,6.8,0.6C183.6,340.4,183.3,341.6,182.3,342.7z"
		/>
	<path class="st96" d="M155,346.9c3.4-0.4,6.9-0.3,10.4-0.2c4.4,0.1,8.7,0.2,13.1,0.6c0.8,0.1,2-0.4,2.7,0.7
		c0.5,1.2,0.2,2.4-0.6,3.1c-1.8-0.3-3.6-0.3-5.4-0.4c-6.4-0.4-12.8-0.3-19.2-0.3c-0.5,0-0.9,0.1-1.3-0.2
		C154.7,349.1,154.9,348,155,346.9z"/>
	<path class="st79" d="M154.6,350.2c0.4-0.3,0.9-0.2,1.3-0.2c4.6,0,9.3-0.1,13.9,0c3.3,0.1,6.6,0.3,9.8,0.5c0.5,0,0.8,0.1,1,0.6
		c0.5,1,0.4,2-0.4,2.8c-0.5,0.2-1,0.3-1.5,0.2c-4.2-0.4-8.5-0.3-12.8-0.5c-3.4-0.2-6.7,0-10,0.1c-0.6,0-1.3,0.1-1.8-0.4
		C154.4,352.2,154.5,351.2,154.6,350.2z"/>
	<path class="st92" d="M154.3,353.2c2.2,0.1,4.4-0.2,6.6-0.2c4,0,7.9,0.2,11.9,0.3c2.5,0.1,5.1,0.2,7.6,0.4c0.5,1.1,0.3,3.6-0.4,4.3
		c0-0.8-0.2-1.3-1.2-1.3c-8.2-0.4-16.5-0.6-24.7-0.5C153.9,355.2,154.2,354.2,154.3,353.2z"/>
	<path class="st104" d="M396,526.7c0.3,1.1,0.2,2.1,0.2,3.2c0,3.7,0,7.3,0,11c0,4.5-0.4,9-0.9,13.5c-0.1,0.8-0.5,1.7,0,2.6
		c-1,0.5-2,1-3.1,1.2c-0.5-0.5-0.3-1.1-0.2-1.7c0.9-7.7,1.3-15.5,1.3-23.2c0-1.5-0.4-2.9-0.2-4.4C393.7,527.8,394.6,526.9,396,526.7
		z"/>
	<path class="st105" d="M205.6,311c-1.5-0.6-3.2-0.6-4.8-0.8c-3.8-0.5-7.7-0.8-11.5-1.2c-1.2-0.1-2.4-0.2-3.6-0.2
		c-4.2-0.2-8.5-0.7-12.7-0.6c-0.8,0-1.6-0.2-2.5-0.2c0.4-0.8,1-1.4,1.6-2c2.1-0.3,4.2-0.2,6.2-0.1c3.3,0.2,6.6,0.4,9.9,0.7
		c6.4,0.5,12.8,1.2,19.2,2.1c0.5,0.1,0.9,0.2,1.3,0.5c0.3,0.3,0.1,0.5-0.2,0.7C207.6,310.4,206.7,311,205.6,311z"/>
	<path class="st98" d="M157.8,334.1c3.6,0,7.3-0.1,10.9,0c5.1,0.2,10.1,0.5,15.2,0.7c0.3,0,0.6,0.2,1,0.2c0.2,1.2-0.2,2.1-1.2,2.8
		c-0.2,0.1-0.5,0.2-0.7,0.1c-2-0.6-4.1-0.1-6.1-0.6c-0.3-0.1-0.7-0.1-1-0.1c-4.8,0-9.6-0.5-14.3,0c-1.2,0.1-2.3-0.2-3.5-0.3
		c-0.5-0.1-1.1-0.1-0.8-0.9C157.3,335.4,157.4,334.7,157.8,334.1z"/>
	<path class="st106" d="M442,371c-0.2,0.5,0.3,1.3-0.3,1.4c-0.5,0.1-0.8-0.6-1.2-1c-2.1-2.5-4.2-5-6.4-7.5
		c-6.2-7.4-13.1-14.1-19.8-20.8c-0.4-0.4-0.7-1-1.4-0.9c-0.8-0.7-0.9-1.7-0.9-2.6c0.5-0.6,0.9-0.2,1.2,0.1c1.9,1.6,3.6,3.4,5.4,5.1
		c3.9,3.8,7.7,7.7,11.4,11.7c3,3.2,5.8,6.5,8.6,9.8c1.2,1.4,2.3,2.7,3.4,4.1C442,370.5,442,370.8,442,371z"/>
	<path class="st107" d="M208.8,309.4c-1.8-0.7-3.7-0.7-5.5-0.9c-2.7-0.4-5.4-0.7-8.2-1c-2.1-0.2-4.2-0.4-6.3-0.5
		c-5.2-0.3-10.4-0.9-15.6-0.8c-0.4,0-0.7-0.1-1.1-0.2c0.5-0.7,1.1-1.4,1.7-2c0.2,0.4,0.5,0.5,0.9,0.5c1.5,0,3.1,0.1,4.6,0.2
		c4.6,0.2,9.2,0.6,13.8,1c5.2,0.4,10.4,1.1,15.6,1.8c1.1,0.1,2.2,0.3,3.3,0.5C211.3,309.1,210.1,309.4,208.8,309.4z"/>
	<path class="st104" d="M157.2,336.1c0,0.4,0.3,0.5,0.7,0.6c2.4,0.2,4.9,0.3,7.3,0.1c2.6-0.2,5.2-0.3,7.8,0.3c0.5,0.1,1,0.2,1.5,0
		c0.5-0.2,1-0.3,1.5-0.1c2.1,0.6,4.3-0.1,6.4,0.7c0.4,0.2,1,0.1,1.5,0.1c0.3,0.9,0.1,1.5-0.7,2c-8.9-0.7-17.8-0.9-26.7-0.8
		C156.6,337.9,156.8,337,157.2,336.1z"/>
	<path class="st70" d="M168.1,311.2c3.9-0.2,7.8,0.1,11.6,0.3c4.8,0.3,9.6,0.5,14.4,1.2c2.5,0.3,5,0.5,7.6,0.8
		c-0.4,1-1.2,1.6-2.3,1.7c-2.1-0.7-4.4-0.7-6.6-0.9c-4-0.4-7.9-0.7-11.9-1c-2.4-0.2-4.9-0.2-7.4-0.3c-2.2,0-4.3,0-6.5-0.3
		C167.5,312.2,167.8,311.7,168.1,311.2z"/>
	<path class="st108" d="M393.5,528.6c0.3,3.5,0.4,7,0.2,10.5c-0.2,4.6-0.3,9.2-0.9,13.8c-0.2,1.8-0.5,3.5-0.6,5.3
		c-0.7,0.3-1.3,0.5-2,0.8c1.5-9.7,1.7-19.5,1.5-29.2C392,529,392.6,528.6,393.5,528.6z"/>
	<path class="st106" d="M442,370.3c-1.3-0.6-1.9-2-2.9-3c-1.8-2-3.4-4.1-5.2-6.1c-5.4-6-11-11.9-16.8-17.5c-1.3-1.3-2.7-2.6-4.1-3.9
		c-0.3-0.3-0.6-0.4-1-0.4c-0.4-0.2-0.5-0.4-0.2-0.8c1.1,0,1.7,0.9,2.3,1.5c3.5,3.3,7.1,6.6,10.4,10.1c4,4.3,8.1,8.5,11.9,13
		c1.8,2.1,3.4,4.4,5.5,6.2C442,369.8,442,370.1,442,370.3z"/>
	<path class="st109" d="M152.8,413.8c0.3,0.3,0.1,0.7,0.2,1c0.6,0.8,0.3,1.8,0.4,2.6c0,0.9,0,1.7,0,2.6c0,1.5,0,3,0,4.6
		c0,2.3,0,4.7,0,7c0.1,2.9,0,5.7,0,8.6c0,0.5,0,1-0.4,1.4c0,2.4,0,4.9-0.1,7.3c0-0.2-0.1-0.4-0.1-0.6
		C152.8,436.9,152.8,425.3,152.8,413.8z"/>
	<path class="st46" d="M153,460.8c0.4,1.8,0.1,3.5,0.2,5.3C152.9,464.3,153,462.6,153,460.8z"/>
	<path class="st110" d="M322.1,565.6c0,0.1,0,0.1,0,0.2c-1.5,0-3,0-4.5,0C319.1,565.3,320.6,565.7,322.1,565.6z"/>
	<path class="st106" d="M441.9,367.8c-0.4-0.8-0.1-1.7-0.2-2.5c0-0.1,0-0.2,0.1-0.3C442.1,365.9,442,366.8,441.9,367.8z"/>
	<path class="st55" d="M243.9,565.1c0.9,0.1,1.9-0.2,2.8,0.2C245.8,565.3,244.8,565.4,243.9,565.1z"/>
	<path class="st16" d="M350.9,276.8c-0.9-0.1-1.8,0.2-2.6-0.2C349.1,276.6,350,276.5,350.9,276.8z"/>
	<path class="st6" d="M241.4,276.9c-0.8,0.4-1.7,0.1-2.6,0.2C239.7,276.8,240.6,276.9,241.4,276.9z"/>
	<path class="st13" d="M416.4,388.7c0-1.1,0-2.2,0-3.3c0.4,1.1,0.1,2.2,0.2,3.3C416.5,388.6,416.5,388.6,416.4,388.7z"/>
	<path class="st111" d="M343,302.4c-3.9,0-7.9-0.1-11.8-0.2c0-0.5-0.5-0.6-0.9-0.8c-10.8-5.6-21.9-10.6-33.2-15
		c-9.1-3.5-18.3-6.6-27.6-9.4c-0.4-0.1-0.8-0.3-1.2-0.4c0-0.1,0-0.2,0.1-0.3c5.6,0,11.2,0,16.9,0c0.7,1.1,2,1.1,3,1.4
		c8.7,3,17.2,6.4,25.6,10c3.4,1.4,6.7,3.1,10,4.6c4.6,2,9,4.4,13.4,6.8C339.2,300.2,341.3,301,343,302.4z"/>
	<path class="st39" d="M363.1,303.4c-2.8-0.2-5.5-0.3-8.3-0.5c-2.5-0.7-4.4-2.5-6.6-3.6c-2-1-3.9-2.2-5.9-3.3
		c-6.2-3.3-12.5-6.5-18.8-9.4c-7.3-3.4-14.6-6.5-22.1-9.4c-0.5-0.2-1-0.3-1.5-1c3.8,0,7.4,0,11.1,0c4.2,1.7,8.4,3.6,12.5,5.4
		c0.3,0.2,0.7,0.3,1.1,0.3c0.8,0.2,1.6,0.5,2.3,0.9c11.8,5.6,23.3,11.7,34.5,18.5c0.5,0.3,1,0.6,1.5,1
		C363,302.7,363.4,302.9,363.1,303.4z"/>
	<path class="st112" d="M363.1,303.4c-0.7-1.3-2.1-1.7-3.2-2.4c-6.7-4-13.5-7.9-20.5-11.5c-4.7-2.4-9.6-4.7-14.4-7
		c-0.2-0.1-0.4-0.1-0.6-0.2c-3.9-1.7-7.9-3.5-11.9-5.2c-0.4-0.1-0.8-0.3-0.7-0.9c3.1,0,6.2,0,9.3,0c0.1,0.7,0.8,0.8,1.3,1
		c7.2,3.2,14.3,6.7,21.3,10.3c8,4.2,15.9,8.7,23.5,13.6c1.3,0.9,2.7,1.7,4,2.5c0.4,0.2,0.9,0.4,0.8,1c-2.3-0.4-4.7-0.7-7-1.1
		c-0.4-0.2-0.9,0-1.3-0.2C363.5,303.5,363.3,303.4,363.1,303.4z"/>
	<path class="st113" d="M311.8,276.3c1,1.2,2.6,1.4,3.9,2c2.9,1.4,5.9,2.3,8.7,4c-1.6-0.2-3-1.2-4.5-1.8c-2.7-1.1-5.3-2.3-8-3.4
		c-0.4-0.2-0.8-0.4-1-0.8C311.1,276.3,311.5,276.3,311.8,276.3z"/>
	<path class="st114" d="M269.8,565.6c-1.9,0-3.9,0-5.8,0c-0.9,0-1.1-0.2-0.7-1.1c1.5-4,2.5-8.1,3.3-12.3c0.7-3.8,1.1-7.7,1.2-11.5
		c0-0.8,0.5-0.8,1-0.7c2.3,0,4.7,0,7,0c-0.1,5.6-0.9,11.2-2.1,16.7c-0.5,2.5-1.4,5-2,7.5C271.6,565.2,271,565.8,269.8,565.6z"/>
	<path class="st52" d="M276.6,539.8c3.4-0.1,6.9-0.1,10.3,0l0,0.1c-0.3,0-0.5,0-0.8,0.1c-3.2,0-6.4,0-9.5,0
		C276.6,539.9,276.6,539.8,276.6,539.8z"/>
	<path class="st115" d="M290.5,539.8c2.8,0,5.7-0.1,8.5-0.1c11.2,0,22.3,0,33.5-0.1c0.2,0,0.5,0,0.7,0c-0.3,6.4-0.7,12.8-2,19
		c-0.4,1.9-0.7,3.8-1.1,5.7c-0.1,0.8-0.5,1.1-1.4,1.1c-1-0.1-1.9,0-2.9,0c-0.3-0.4-0.1-0.9,0-1.3c1.4-6.4,2.4-12.9,2.7-19.5
		c0.1-1,0.2-2.1,0.2-3.1c0-1-0.4-1.3-1.4-1.3c-0.7,0-1.4,0.1-2.1-0.3c-1.8,0-3.5,0-5.3,0c-1.8,0-3.7,0-5.5,0c-2.8,0-5.5,0-8.3,0
		c-1.8,0-3.7,0-5.5,0c-2.4,0-4.9,0-7.3,0C292.5,539.9,291.5,539.9,290.5,539.8L290.5,539.8z"/>
	<path class="st116" d="M178.8,432.6c0,3.4,0,6.7,0,10.1c-3.3-0.3-6.5-0.6-9.8-1c-0.2,0-0.3,0-0.5,0c-3.7,0.1-7.5-0.5-11.2-0.2
		c-1.5,0.1-2.9,0.2-4.3,0.2c0-3.4,0-6.7,0-10.1c0.5-0.4,1.1-0.4,1.7-0.4c4,0,8-0.1,12,0c3.5,0.1,7.1,0.4,10.6,0.9
		C177.8,432.2,178.4,432.2,178.8,432.6z"/>
	<path class="st60" d="M290.5,539.8C290.5,539.8,290.5,539.9,290.5,539.8c-1.2,0-2.4,0-3.5,0c0,0,0-0.1,0-0.1
		C288.1,539.7,289.3,539.7,290.5,539.8z"/>
	<path class="st117" d="M178.8,415.5c0,1.8,0,3.5,0,5.3c-0.6,0.5-1.3,0.4-2,0.3c-6.1-0.6-12.2-0.9-18.4-1c-1.3,0-2.7,0.3-4,0.3
		c-0.5,0-1,0-1.4-0.4c0-1.8,0-3.5,0-5.3c4,0,8,0,12,0c4,0,8,0.3,12.1,0.7C177.7,415.6,178.2,415.5,178.8,415.5z"/>
	<path class="st118" d="M178.8,405c0,1.6,0,3.2,0,4.8c-1-0.5-2.2-0.3-3.3-0.4c-1.8-0.3-3.6-0.2-5.5-0.3c-4.5-0.4-9.1-0.2-13.6-0.2
		c-1.2,0-2.3-0.1-3.5,0.2c0-1.6,0-3.2,0-4.8c0.5-0.4,1.1-0.4,1.7-0.4c4.7,0,9.4-0.1,14.2,0c2.7,0.1,5.4,0.3,8.1,0.5
		C177.6,404.5,178.3,404.5,178.8,405z"/>
	<path class="st110" d="M325.4,540c1,0,1.9,0,2.9,0c0.6,0,0.9,0.2,0.9,0.9c0,3.1-0.4,6.2-0.7,9.3c-0.4,3.6-0.9,7.2-1.6,10.8
		c-0.3,1.5-0.7,3.1-1,4.6c-1.3,0-2.5,0-3.8,0c0.6-3.3,1.3-6.5,1.9-9.8c0.4-2.4,0.7-4.9,0.9-7.4C325.1,545.6,325.4,542.8,325.4,540z"
		/>
	<path class="st119" d="M178.9,394.4c0,1.8,0,3.7,0,5.5c-0.9,0.3-1.7,0.2-2.6,0.1c-5.6-0.5-11.2-0.7-16.8-0.7c-1.2,0-2.4,0-3.6,0.2
		c-0.9,0.1-1.9,0.3-2.8-0.3c0-1.5,0-2.9,0-4.4c0-0.5,0.1-0.9,0.7-0.9c3.5,0,7-0.4,10.5-0.2C169.1,393.9,174,394.2,178.9,394.4z"/>
	<path class="st109" d="M153,399.2c3.5-0.1,7.1-0.4,10.6-0.2c4.8,0.2,9.7,0.5,14.5,0.8c0.2,0,0.5,0.2,0.7,0.2c0,1.7,0,3.4,0,5
		c-8.6-1-17.2-0.7-25.8-0.8C153,402.6,153,400.9,153,399.2z"/>
	<path class="st70" d="M415.4,484.1c0-0.5-0.1-0.9,0.2-1.3C415.6,483.2,415.7,483.7,415.4,484.1z"/>
	<path class="st120" d="M178.8,432.6c-2.3-0.2-4.6-0.5-6.9-0.7c-1.7-0.1-3.4-0.3-5.1-0.3c-4.6,0-9.2,0-13.8,0c0-2.3,0-4.7,0-7
		c1.3-0.7,2.8-0.6,4.2-0.6c6.9-0.2,13.9,0.3,20.8,1c0.3,0,0.7,0.1,0.9,0.4C178.8,427.8,178.8,430.2,178.8,432.6z"/>
	<path class="st121" d="M178.8,425.3c-3.1-0.1-6.1-0.6-9.2-0.7c-4.7-0.1-9.4-0.8-14.1-0.1c-0.8,0.1-1.7,0-2.5,0c0-1.5,0-3,0-4.5
		c2.8,0,5.6-0.3,8.4-0.3c2.8,0.1,5.7,0.3,8.5,0.3c3,0.1,6,0.6,8.9,0.7C178.8,422.3,178.8,423.8,178.8,425.3z"/>
	<path class="st122" d="M357.7,343.7c0-9.6,7.7-17.4,17.2-17.4c9.7,0,17.5,7.7,17.5,17.3c0,9.6-7.8,17.4-17.4,17.4
		C365.5,361,357.8,353.3,357.7,343.7z"/>
	<path class="st24" d="M368.9,399.7c1.3,3.8,2.1,7.6,2.5,11.6c-0.7,0.1-0.9-0.4-1.1-0.8c-3.1-4.7-6.6-9.2-10.3-13.5
		c-4-4.6-8.3-9-12.9-13.1c-5.9-5.3-12.1-10-18.7-14.4c-10.4-6.8-21.5-12.4-33.2-16.8c-3.4-1.3-6.8-2.5-10.3-3.5
		c-0.4-0.1-0.8-0.2-1.1-0.5c-0.3-0.3-0.4-0.5,0-0.8c3.4-0.7,6.8-1.1,10.3-1.2c0,0-0.7,0.5-0.7,0.5c7.8,2.8,15.4,6,22.7,9.8
		c11.1,5.8,21.5,12.6,31.1,20.6c4.7,4,9.1,8.3,13.4,12.7c2.5,2.6,4.8,5.3,7,8.1C367.8,398.9,368.1,399.5,368.9,399.7z"/>
	<path class="st4" d="M261.3,356.2c1.4-1,3-1.7,4.5-2.4c0.9,0.5,1.8,0.6,2.8,0.8c10.9,2.5,21.4,6,31.6,10.6
		c12.7,5.8,24.5,13,35.3,22c3.7,3.1,7.3,6.3,10.6,9.8c8.2,8.6,15.2,18,20.8,28.5c1.1,2,2.1,4.1,3.1,6.2c0.2,0.5,0.5,1.1,1.1,1.3
		c-0.3,2-0.6,4.1-1.2,6c-0.1,0.5-0.4,0.7-0.8,0.3c-0.3-0.3-0.5-0.8-0.6-1.2c-4.9-12-11.6-22.8-20-32.6c-2.8-3.3-5.9-6.5-9.1-9.5
		c-0.3-0.3-0.6-0.6-1-0.7c-1.4-1.6-2.5-3.4-3.9-5c-6.3-7.3-14-12.4-23.3-15.2c-0.6-0.2-1.3-0.3-1.8-0.8c-0.4-0.4-0.8-0.7-1.3-1
		c-9.2-4.8-18.6-8.9-28.6-11.9c-5.6-1.7-11.2-3.1-16.9-4.3C262.1,356.9,261.3,357,261.3,356.2z"/>
	<path class="st123" d="M283.7,348c-0.4,0.8,0.4,0.7,0.7,0.8c3.6,1.1,7.2,2.3,10.8,3.7c7.6,2.9,14.9,6.2,22,10
		c4.9,2.7,9.7,5.6,14.3,8.7c4.7,3.3,9.3,6.7,13.6,10.5c2.8,2.5,5.7,5,8.3,7.6c6.2,6.3,12,13.1,16.9,20.5c0.3,0.5,0.5,1.1,1.1,1.3
		c0.4,2,0.6,4.1,0.5,6.2c0.2,0.4,0.1,0.9,0.1,1.4c-0.6,0.6-0.8,0-1-0.3c-0.7-1-1.2-2-1.9-3c-3.9-6.2-8.2-12-13.1-17.5
		c-2.3-2.6-4.7-5.3-7.2-7.7c-7.7-7.3-15.9-13.9-24.9-19.6c-4.6-2.9-9.4-5.6-14.3-8.1c-6.1-3.1-12.4-5.7-18.8-8
		c-4.3-1.5-8.7-2.9-13.2-4.1c-0.5-0.1-1-0.1-1-0.9C278.9,348.9,281.3,348.4,283.7,348z"/>
	<path class="st2" d="M371.9,419.1c0-0.5,0-1.1,0-1.6c0.4,1.6,0.2,3.2,0.2,4.9c-0.1,2.1-0.3,4.2-0.4,6.2c0,0.4-0.1,0.7-0.3,1
		c-0.9,0.3-0.9-0.5-1.1-1c-2.6-5.1-5.5-10.1-8.8-14.9c-3.9-5.7-8.3-11-13-16.1c-6-6.5-12.7-12.2-19.9-17.4
		c-8.4-6.1-17.3-11.2-26.8-15.6c-9.7-4.5-19.8-7.8-30.1-10.5c-0.8-0.2-1.7-0.3-2.4-0.6c-0.4-0.2-1.1-0.4-0.4-1
		c1.2-0.6,2.5-1.1,3.8-1.5c8.8,2.1,17.3,4.9,25.6,8.4c10.9,4.5,21.1,10.2,30.8,16.9c8.1,5.7,15.6,12,22.3,19.2
		c7.3,7.7,13.6,16.1,18.8,25.4c0.4,0.8,0.9,1.5,1.3,2.4C371.8,421.8,371.2,420.4,371.9,419.1z"/>
	<path class="st6" d="M371.9,419.1c0,1.6,0,3.2,0,5.2c-1-1-1.3-2-1.8-2.9c-3.4-6-7.3-11.7-11.6-17.2c-3.7-4.6-7.6-9-11.9-13.1
		c-5.4-5.2-11.2-10-17.3-14.3c-7.2-5.1-14.8-9.6-22.8-13.4c-9.2-4.4-18.8-8.1-28.7-10.7c-1.3-0.3-2.7-0.7-4-1.1
		c-0.4-0.1-0.9-0.1-1.2-0.6c1.3-0.5,2.6-1,4-1.3c0.2,0.4,0.6,0.4,0.9,0.5c8.1,2.2,16.1,5,23.8,8.3c10,4.3,19.5,9.6,28.4,15.7
		c4.1,2.9,8.1,6,12,9.2c2.2,1.9,4.4,3.8,6.5,5.8c8.3,8,15.5,16.9,21.6,26.7C370.5,417.1,371,418.2,371.9,419.1z"/>
	<path class="st124" d="M273.1,491.2c-1.1-0.3-2.2-0.7-3.3-1.2c-0.7-0.4-0.5-1-0.4-1.5c0.2-1.4,0.5-2.9,0.6-4.3
		c0.9-9.4-2-17.5-8-24.6c-4.7-5.5-10.5-9.4-17.3-12c-5.3-2-10.8-3-16.4-3.2c-0.5,0-1.1,0-1.4-0.6c-0.5-1-0.8-2.2-1-3.3
		c0.4-0.4,0.8-0.3,1.3-0.3c6.1,0.3,12.1,1,17.9,3.1c4.8,1.7,9.3,4,13.4,7c0.5,0.3,1,0.7,1.5,0.9c0.7,0.4,1.2,1,1.7,1.6
		c1.2,1.4,2.6,2.7,4,4.1c0.3,0.3,0.7,0.6,0.8,1c0.4,1.1,1.2,2,1.8,3c4.3,6.4,6.5,13.5,6.3,21.3C274.6,485.2,274.2,488.2,273.1,491.2
		z"/>
	<path class="st9" d="M368.9,399.7c-0.1,0.6-0.4,0.6-0.7,0.2c-2.3-3-4.7-5.9-7.2-8.6c-3-3.2-6.1-6.3-9.4-9.3c-2-1.8-4-3.5-6-5.2
		c-3.4-2.8-6.9-5.4-10.4-7.9c-7.3-5.1-15-9.5-23-13.4c-5.9-2.9-12-5.4-18.2-7.6c-0.4-0.2-0.9-0.2-1.3-0.7c0.4-0.3,1,0,1.4-0.4
		c1.8-0.1,3.5-0.2,5.3,0c6.2,2.4,12.3,5.1,18.2,8.1c11.1,5.8,21.7,12.5,31.3,20.6c4.3,3.6,8.5,7.3,12.3,11.4
		c1.7,1.8,3.4,3.4,4.8,5.4c0.1,0.2,0.3,0.3,0.5,0.4C367.5,394.9,368.3,397.2,368.9,399.7z"/>
	<path class="st125" d="M366.4,392.6c-0.5,0.1-0.8-0.3-1-0.6c-3-3.6-6.2-6.9-9.6-10c-4.2-3.9-8.6-7.5-13.1-11
		c-5.9-4.5-12.1-8.5-18.5-12.2c-5.6-3.2-11.5-6.1-17.5-8.7c-2.1-0.9-4.2-1.8-6.4-2.6c-0.4-0.2-0.9-0.3-1.1-0.8c0.7,0,1.3,0,2,0
		c0.7,0.2,1.4-0.1,2.1,0.2c2.6,0,5.2,0.4,7.8,1c0,0.7,0.7,0.7,1.1,0.9c6.4,3,12.7,6.3,18.7,10c7.5,4.6,14.6,9.6,21.3,15.3
		c2.7,2.3,5.3,4.7,7.8,7.1c0.3,0.3,0.6,0.5,0.9,0.7c1.7,2.5,3.2,5.2,4.3,8C365.5,390.8,365.9,391.7,366.4,392.6z"/>
	<path class="st46" d="M226.9,443.7c0.5,0.3,1.1,0.2,1.7,0.2c8.6,0.3,16.7,2.5,24,7c5.2,3.2,9.6,7.4,12.8,12.6
		c2.8,4.5,4.5,9.4,4.9,14.8c0.3,3.5-0.1,6.9-0.8,10.3c-0.1,0.5-0.1,0.9,0.2,1.3c-1.2-0.3-2.2-0.8-3.3-1.4c-0.2-1.3,0.3-2.5,0.5-3.8
		c0.6-4.8,0-9.5-1.7-14.1c-2.8-7.4-7.8-13-14.4-17.2c-6.2-3.9-13-5.8-20.2-6.6c-0.9-0.1-1.8,0.1-2.7-0.1
		C227.4,445.8,227.1,444.7,226.9,443.7z"/>
	<path class="st126" d="M338.4,394.9c1.4,0.5,2.4,1.8,3.3,2.8c1.6,1.8,3.4,3.5,5.1,5.4c3.2,3.7,6.2,7.5,9.1,11.4
		c3.3,4.6,6.2,9.5,8.8,14.5c1.5,2.8,2.8,5.8,4,8.8c0.2,0.4,0.3,0.9,0.6,1.2c0.3,0.5,0.4,0,0.6-0.1c-0.5,2.2-1.1,4.4-2,6.5
		c-0.9,0-0.9-0.8-1.1-1.3c-1.6-4.8-3.6-9.4-5.9-13.8c-4.2-8.1-9.2-15.7-15.1-22.6c-0.8-1-1.7-1.9-2.6-2.9c-0.7-1.1-1-2.3-1.5-3.4
		c-0.8-1.8-1.7-3.4-2.7-5.1C338.6,395.9,338.3,395.5,338.4,394.9z"/>
	<path class="st127" d="M360.9,381.8c-0.6,0-1-0.3-1.4-0.7c-5.1-4.9-10.4-9.4-16.1-13.6c-5.5-4.1-11.3-7.9-17.3-11.2
		c-3.3-1.9-6.6-3.7-10-5.4c-1.7-0.8-3.4-1.6-5.1-2.4c-0.2-0.1-0.6-0.1-0.4-0.5c0-0.1,0.4-0.1,0.6-0.1c16.3,2.9,30,10.7,41.3,22.7
		C355.7,374,358.4,377.9,360.9,381.8z"/>
	<path class="st128" d="M227.9,446.7c1.7-0.7,3.4-0.2,5.1,0.1c5.3,0.7,10.4,2.2,15.2,4.7c6.9,3.6,12.3,8.7,16,15.6
		c1.8,3.4,2.8,7,3.2,10.8c0.4,3.6,0.3,7.1-0.8,10.6c-1-0.3-1.9-0.8-2.7-1.3c-0.3-0.9,0.1-1.7,0.2-2.6c1-8.1-1.3-15.2-6.4-21.5
		c-5.5-6.8-12.9-10.8-21.3-12.7c-1.9-0.4-3.8-0.8-5.7-0.8c-0.6,0-1.2-0.1-1.8-0.5C228.4,448.3,228.1,447.5,227.9,446.7z"/>
	<path class="st129" d="M290.9,495c-1.9,0-3.8-0.3-5.7-0.7c-0.3-0.5-0.1-1,0-1.4c1.3-4.6,1.8-9.3,1.6-14.1c-0.1-3-0.6-6-1.4-8.9
		c-0.2-0.6-0.4-1.3-0.1-1.9c0.3-0.3,0.7-0.3,1.1-0.2c1.7,0.4,3.4,0.7,5.2,1c0.3,0.1,0.6,0.2,0.8,0.5c0.5,0.8,0.6,1.8,0.7,2.7
		c1.3,7.3,1.1,14.5-0.8,21.6C292.1,494,292.2,495.1,290.9,495z"/>
	<path class="st126" d="M261.3,356.2c1.1,0.8,2.4,0.7,3.7,1c8.8,1.9,17.3,4.4,25.7,7.7c5.9,2.3,11.6,5,17.3,7.9
		c0.6,0.3,1.3,0.6,1.6,1.3c-0.3,0.3-0.8,0.3-1.2,0.2c-2.4-0.6-4.8-0.8-7.2-1.2c-2.4-0.4-4.4-1.8-6.6-2.7c-11.3-4.8-23-8.3-35-10.6
		c-0.5-0.1-1.1-0.2-1.6-0.4c-0.3-0.1-0.9-0.2-0.6-0.8C258.6,357.7,259.8,356.8,261.3,356.2z"/>
	<path class="st130" d="M228.8,449c8.9,0.5,16.9,3.2,23.9,8.7c5.7,4.5,9.6,10.3,11.2,17.5c0.9,4,1.1,8-0.1,12
		c-1-0.4-1.9-0.9-2.8-1.5c-0.3-0.9-0.1-1.8,0-2.7c0.3-3.5-0.1-6.9-1.3-10.2c-3.5-9.4-10.5-15.2-19.6-18.6c-2.7-1-5.4-1.6-8.3-1.9
		c-0.7-0.1-1.4-0.1-1.9-0.8C229.4,450.7,229,449.9,228.8,449z"/>
	<path class="st14" d="M343.3,404.7c2.8,2.4,4.9,5.4,7.1,8.3c4.5,6,8.5,12.4,11.7,19.1c1.9,3.9,3.6,7.8,4.9,11.9
		c0.2,0.5,0.3,1.1,0.8,1.4c-0.3,1.7-1.1,3.2-1.8,4.8c-0.9,0.3-1-0.5-1.2-1.1c-0.9-3.3-2.1-6.4-3.5-9.6c-3.9-9.2-8.8-17.9-14.9-25.8
		c-0.4-0.6-1.1-0.9-1.5-1.5c-0.7-2.2-1.2-4.6-1.9-6.8C343,405.2,343,404.9,343.3,404.7z"/>
	<path class="st40" d="M257.3,358.6c0.6,0.9,1.6,0.7,2.5,0.9c11.8,2.2,23.3,5.7,34.4,10.4c1.8,0.8,3.7,1.4,5.3,2.5
		c0.5,0.3,1.1-0.1,1.5,0.4c-0.3,0.4-0.8,0.4-1.3,0.4c-2.3,0-4.5,0.1-6.8,0c-3.5-1.6-7.2-3-10.8-4.3c-5.8-2.1-11.7-3.6-17.6-5
		c-3.1-0.7-6.2-1.3-9.4-1.8c-0.6-0.1-1.5,0.1-1.4-1C254.9,360.1,256,359.3,257.3,358.6z"/>
	<path class="st131" d="M224.1,431.4c-0.3-1.6-0.5-3.2-0.5-4.8c0.3-0.3,0.7-0.4,1.2-0.4c8.6-0.1,16.9,0.9,25.1,3.6
		c0.1,0,0.2,0.1,0.3,0.2c1,1.2,0.8,2.8,1.4,4.2c0.2,0.5,0.3,1-0.1,1.5c-0.6,0.3-1.2,0.1-1.7-0.1c-5.7-2.1-11.7-3.3-17.8-3.8
		c-2.1-0.2-4.2,0-6.3-0.1C225.2,431.7,224.6,431.8,224.1,431.4z"/>
	<path class="st18" d="M371.1,432.9c-0.3,0.4-0.6,0.6-0.9-0.1c-0.5-1.1-1-2.3-1.6-3.4c-2.7-5.5-5.8-10.7-9.3-15.7
		c-2.9-4.2-6-8.2-9.4-12c-2.4-2.7-4.8-5.4-7.4-7.8c-5.5-5.1-11.3-10-17.5-14.3c-6.6-4.6-13.5-8.6-20.7-12.1
		c-9-4.4-18.3-7.9-27.9-10.5c-3.2-0.9-6.4-1.7-9.6-2.4c-0.5-0.1-0.9-0.1-1-0.7c0.3-0.3,0.6-0.3,1-0.4c4.8,0.8,9.5,2.2,14.1,3.6
		c9.5,2.9,18.8,6.6,27.7,11.2c10.2,5.3,19.8,11.6,28.6,19.1c4.1,3.5,8,7.2,11.7,11.2c7.3,8,13.8,16.6,18.9,26.2
		c0.5,1,1.1,1.9,1.6,2.9c0.7,1.5,1.6,3,2,4.6C371.1,432.4,371.1,432.6,371.1,432.9z"/>
	<path class="st18" d="M371.1,432.1c-0.7-0.6-0.8-1.6-1.2-2.4c-3.9-8-8.6-15.4-14-22.5c-4.4-5.7-9.3-10.9-14.6-15.8
		c-7.9-7.3-16.5-13.6-25.8-19c-11-6.5-22.7-11.4-34.8-15.2c-4.1-1.3-8.3-2.4-12.6-3.3c-0.5-0.1-1,0-1.3-0.5c0.6-0.4,1.3-0.7,2.1-0.9
		c-0.4,0.9,0.5,0.8,0.8,0.9c3.4,0.7,6.7,1.7,10,2.7c5.9,1.7,11.7,3.8,17.4,6.2c4.3,1.8,8.5,3.8,12.6,5.9c7.9,4.1,15.4,8.9,22.4,14.3
		c3.8,3,7.5,6.1,11,9.4c7.9,7.3,14.7,15.6,20.5,24.6c2.5,3.9,4.7,7.9,6.8,12c0.2,0.4,0.3,1,0.9,1.1
		C371.7,430.5,371.2,431.3,371.1,432.1z"/>
	<path class="st7" d="M363.9,454.8c-0.5,1.3-1.3,2.5-2,3.7c-0.9,0.3-0.8-0.5-0.9-1c-0.7-3-1.6-6.1-2.6-9.1
		c-2.8-8.8-6.9-17-11.9-24.7c-0.3-0.5-0.6-0.9-0.8-1.4c-0.2-1.7-0.1-3.4-0.2-5.1c0.7-0.8,0.9,0.1,1.1,0.4c1.3,1.5,2.3,3.2,3.4,4.8
		c6.1,9.5,10.7,19.8,13.7,30.7C363.8,453.7,364,454.3,363.9,454.8z"/>
	<path class="st132" d="M363.9,454.8c-1-3.2-1.9-6.5-3-9.6c-2.6-7.4-6.1-14.4-10.2-21.1c-1.5-2.4-3.1-4.7-4.8-7
		c-0.7-1.5-1.1-3.1-0.6-4.8c1.8,0.9,2.6,2.8,3.7,4.3c4.5,6.1,8.1,12.7,11.3,19.5c2,4.2,3.7,8.6,5,13.1c0.1,0.5,0.2,1,0.9,1.1
		C365.4,451.8,364.8,453.4,363.9,454.8z"/>
	<path class="st30" d="M360.1,461.3c-0.5,1.3-1.5,2.4-2.3,3.5c-0.9-0.1-0.8-0.9-0.9-1.5c-0.9-5-2.2-9.9-3.8-14.7
		c-1.9-5.7-4.4-11.1-7.3-16.3c-0.4-0.7-0.8-1.4-0.8-2.2c0.2-1.4,0.1-2.8,0.7-4.1c0.8-0.3,0.9,0.5,1.2,0.9c2.1,3.3,3.9,6.7,5.6,10.3
		c3.3,7.1,5.9,14.4,7.5,22.1C360,459.9,360.1,460.6,360.1,461.3z"/>
	<path class="st133" d="M233.6,458.8c-0.6-1-1.1-2-1.7-3c0.4-0.6,0.9-0.4,1.5-0.3c8.4,1.7,15.5,5.6,20.3,12.9
		c2.8,4.2,4.2,8.8,3.9,13.9c0,0.4,0,0.8-0.3,1.2c-1.3-0.7-2.4-1.5-3.5-2.5c-0.1-4.6-1.6-8.8-4.5-12.4c-3.7-4.6-8.5-7.7-14.2-9.2
		C234.5,459.2,234.1,459,233.6,458.8z"/>
	<path class="st134" d="M311.1,494.1c-1.4,0.3-2.8,0.6-4.3,0.6c-0.5-0.5-0.2-1.1-0.1-1.7c1.5-7.4,1.7-14.9,0.5-22.3
		c-0.1-0.7-0.3-1.4-0.5-2.1c0-0.2,0-0.4,0.2-0.4c1.4-0.4,2.7-1.1,4.3-0.8c0.6,0.3,0.7,0.9,0.8,1.5c0.5,2.9,0.9,5.9,1,8.8
		c0.1,4.9,0,9.9-1,14.7C311.8,493.1,311.8,493.8,311.1,494.1z"/>
	<path class="st135" d="M224.1,431.4c1.2,0,2.4,0,3.6,0c7.6-0.1,15,1.3,22.1,3.9c0.5,0.2,1.1,0.5,1.7,0.4c1.1,1.4,1.6,3,1.9,4.7
		c-0.4,0.9-1.1,0.5-1.7,0.2c-2.3-1-4.6-1.9-7.1-2.6c-5.9-1.7-11.9-2.6-18-2.5c-0.7,0-1.5,0.3-2-0.6
		C224.4,433.7,224,432.6,224.1,431.4z"/>
	<path class="st136" d="M282.2,493.7c-1.3-0.1-2.6-0.5-3.8-0.9c-0.3-0.5-0.1-1,0.1-1.5c2.2-8.3,1.8-16.5-1.2-24.5
		c-0.2-0.6-0.5-1.3-0.2-1.9c0.1-0.2,0.3-0.3,0.5-0.2c1.5,0.6,3.1,0.9,4.4,1.9c1.3,3.4,2,7,2.4,10.6c0.5,5.1-0.1,10-1.4,14.9
		C282.7,492.7,282.7,493.3,282.2,493.7z"/>
	<path class="st137" d="M233.6,458.8c4.9,0.8,9,3,12.7,6.3c2.8,2.5,5.1,5.5,6.5,9.1c0.6,1.7,0.9,3.4,1.2,5.2
		c0.1,0.5,0.1,1.1-0.3,1.6c-1.7-1.1-3.3-2.4-4.8-3.8c-0.6-2.9-2-5.3-4-7.5c-2.3-2.5-4.9-4.5-8-5.8
		C235.7,462.2,234.6,460.5,233.6,458.8z"/>
	<path class="st27" d="M304.3,495c-3.1,0.4-6.2,0.6-9.4,0.2c0.7-0.6,1.5-0.4,2.2-0.4c3.1-0.1,2.8,0.5,3.5-2.9
		c0.8-3.9,1.3-7.8,1.2-11.7c0-3.1-0.3-6.2-0.9-9.2c-0.1-0.6-0.4-1.2-0.6-1.8c0.1-0.1,0.1-0.3,0.2-0.3c1.4-0.3,2.8-0.6,4.2-0.2
		c0.5,0.8,0.6,1.8,0.7,2.8c1.1,7.5,0.9,14.9-0.8,22.3C304.7,494.3,304.6,494.7,304.3,495z"/>
	<path class="st138" d="M253.7,361c0.7,1.2,2,0.8,3,1c6.9,1.2,13.7,2.9,20.5,4.9c4.5,1.4,8.9,3,13.3,4.8c0.8,0.3,1.5,0.8,2.3,1.2
		c-0.1,0.3-0.3,0.4-0.5,0.5c-1.3,0.1-2.5,0.6-3.8,0.5c-11.2-4.5-22.7-7.7-34.6-9.6c-1.1-0.2-2.3-0.1-3.4-0.7
		C251.5,362.6,252.6,361.8,253.7,361z"/>
	<path class="st139" d="M273.1,491.2c-0.1-1.7,0.6-3.3,0.8-5c0.7-4.2,0.5-8.3-0.4-12.4c-1.1-5.4-3.6-10.3-6.8-14.8
		c-0.2-0.3-0.9-0.6-0.5-1.3c2.4,1.2,4.3,2.9,6.5,4.3c0.2,0.1,0.2,0.3,0.3,0.5c1.1,2.8,2.5,5.5,3.2,8.4c1.7,6.4,1.8,12.9,0.1,19.3
		c-0.1,0.6-0.2,1.2-0.8,1.6C274.8,491.7,273.9,491.4,273.1,491.2z"/>
	<path class="st140" d="M352.5,471.1c-0.6,1.1-1.7,1.9-2.6,2.8c-1,0.1-0.7-0.6-0.7-1.1c-0.3-5-1.2-10-2.5-14.8
		c-1.2-4.8-2.8-9.5-4.8-14c-0.3-0.7-0.7-1.4-0.7-2.1c0.1-1.2,0.7-2.2,1.2-3.2c0.1-0.3,0.3-0.5,0.7-0.4c1.7,2.9,2.9,6,4.1,9.2
		c2.8,7.3,4.5,14.8,5.4,22.5C352.6,470.3,352.5,470.7,352.5,471.1z"/>
	<path class="st97" d="M327.4,489.1c-1.2,0.6-2.5,1.2-3.8,1.5c-0.4-1.2,0.1-2.4,0.2-3.6c0.9-7.9,0.1-15.6-1.6-23.3
		c-0.1-0.2-0.1-0.5-0.2-0.7c0.3-1.1,2.1-2.3,3.4-2.3c1,1.6,1.1,3.5,1.5,5.3c1.2,5.9,1.6,11.8,1.3,17.7c0,1.3-0.2,2.5-0.3,3.8
		C327.9,488.1,327.8,488.7,327.4,489.1z"/>
	<path class="st41" d="M229.9,451.5c2.1,0.8,4.3,0.7,6.5,1.2c6.9,1.7,12.9,4.9,17.7,10.1c4.2,4.5,6.8,9.9,7.3,16.2
		c0.2,2.3,0,4.5-0.3,6.7c-0.7-0.1-1.2-0.6-1.8-1c-0.3-0.4-0.3-0.9-0.3-1.4c0.7-11.2-4.6-19.1-13.8-24.7c-4.1-2.5-8.5-4-13.3-4.5
		c-0.3,0-0.7-0.1-0.9-0.3C230.5,453,230.1,452.3,229.9,451.5z"/>
	<path class="st141" d="M260.1,451.5c-1.3-0.3-2.3-1.3-3.4-2c-6.6-4.4-13.8-7.1-21.6-8.3c-3.1-0.5-6.1-0.5-9.2-0.7
		c-0.3-0.8-0.5-1.6-0.6-2.5c0.5-0.5,1.1-0.4,1.7-0.4c9,0,17.5,1.9,25.6,5.9c1,0.5,2,1.1,3.1,1.4c0.5,0.2,0.7,0.5,1,0.9
		c1.1,1.7,2.2,3.5,3.4,5.2C260.1,451.1,260.1,451.3,260.1,451.5z"/>
	<path class="st43" d="M230.9,453.7c5.3,0.1,10,1.9,14.5,4.5c5.1,3,9.1,7.1,11.7,12.5c1.3,2.7,1.9,5.6,2.2,8.7
		c0.2,1.8-0.2,3.5-0.1,5.2c-0.7-0.4-1.3-0.9-2-1.3c0.2-4.3-0.4-8.3-2.3-12.2c-2.5-4.9-6.2-8.6-10.8-11.4c-3.4-2-7.1-3.3-10.9-4
		c-0.4-0.1-0.8,0-1.2,0.1C231.5,455.1,231.2,454.4,230.9,453.7z"/>
	<path class="st62" d="M345.2,430.1c0,0.7,0.4,1.3,0.7,1.9c3.3,5.8,6,11.9,8,18.3c1.3,4.2,2.5,8.5,3.2,12.8c0.1,0.6,0,1.3,0.7,1.7
		c-0.6,0.9-1.2,1.8-1.9,2.5c-0.8-0.2-0.9-0.9-1-1.5c-0.8-5.1-2.1-10-3.5-14.9c-0.6-2.3-1.7-4.4-2.4-6.6c-0.9-2.6-2.2-5-3.3-7.4
		c-0.4-0.9-1.1-1.7-1.6-2.6C344.1,432.8,344.2,431.3,345.2,430.1z"/>
	<path class="st30" d="M244.3,369.3c0.6-0.8,1.4-1.6,2.2-2.2c4.8,0.3,9.5,1.2,14.2,2.2c6.3,1.3,12.6,3,18.7,5.2
		c0.6,0.2,1.2,0.3,1.6,0.9c0,0.7-0.6,0.8-1,0.9c-0.9,0.3-1.7,0.9-2.7,0.9c-9.5-3.4-19.4-5.6-29.4-6.9c-0.7-0.1-1.5-0.2-2.2-0.3
		C245.1,369.9,244.5,369.9,244.3,369.3z"/>
	<path class="st142" d="M255.8,445.2c-0.5,0.1-1-0.2-1.4-0.4c-4.9-2.7-10.2-4.6-15.7-5.7c-4.4-0.9-8.9-1.3-13.4-1.1
		c-0.4-1-0.5-2-0.7-3c0.3,0.2,0.7,0.3,1.1,0.2c3.8-0.2,7.6,0.2,11.3,0.8c3.9,0.6,7.7,1.5,11.3,3c1.3,0.5,2.6,1,3.9,1.6
		c0.4,0.2,0.8,0.4,0.9-0.3c0.2,0,0.4,0,0.4,0.2C254.4,441.9,255.5,443.4,255.8,445.2z"/>
	<path class="st143" d="M223.4,418.3c-0.1-1.3,0.1-2.7,0.3-4c0.4-0.4,0.9-0.4,1.4-0.4c7.9-0.2,15.6,0.5,23.3,2.4
		c0.4,0.1,0.9,0.2,1.3,0.5c0.5,2.2,0.4,4.4,0.1,6.7c-0.1,0.1-0.2,0.2-0.4,0.2c-0.6-0.5-0.4-1.3-0.4-1.9c0-0.8-0.3-1.2-1.1-1.4
		c-4.6-1.1-9.2-1.8-13.9-2.2c-2.5-0.2-4.9-0.2-7.4-0.2C225.4,417.9,224.4,417.9,223.4,418.3z"/>
	<path class="st144" d="M341.2,481.2c-0.9,0.7-1.7,1.5-2.8,1.9c-0.5-0.5-0.4-1.1-0.4-1.7c0.1-9.6-1.4-18.9-4.5-28
		c0.2-1.3,1.1-2,2-2.8c0.2-0.1,0.4-0.1,0.5,0.1c1.1,2.5,1.9,5.1,2.6,7.7c1.5,5.5,2.4,11.2,2.7,17
		C341.6,477.4,341.9,479.3,341.2,481.2z"/>
	<path class="st117" d="M223.4,418.3c0.2-0.5,0.5-0.8,1.1-0.8c7.9-0.2,15.7,0.6,23.4,2.4c1.1,0.3,1.5,0.6,1.4,1.7
		c-0.1,0.6,0,1.3,0,1.9c-0.4,0.4-0.9,0.3-1.4,0.2c-3.8-0.9-7.7-1.7-11.6-2.1c-3.9-0.4-7.8-0.7-11.7-0.3c-0.4,0-0.8,0.1-1.2-0.2
		C223.4,420.1,223.4,419.2,223.4,418.3z"/>
	<path class="st145" d="M275.6,492c0.9-3.1,1.4-6.2,1.6-9.4c0.3-5.8-0.8-11.2-3-16.5c-0.5-1.2-1.4-2.2-1.3-3.5
		c1.5,0.3,2.7,1.1,4.1,1.7c0.2,0.1,0.3,0.3,0.3,0.5c-0.1,0.7,0.1,1.4,0.4,2.1c1.3,3.3,2,6.8,2.4,10.3c0.6,5.4-0.1,10.5-1.6,15.7
		C277.4,492.5,276.5,492.3,275.6,492z"/>
	<path class="st146" d="M282.2,493.7c0.5-2.6,1.3-5.2,1.6-7.8c0.4-3.1,0.4-6.1,0.1-9.2c-0.4-3.4-1.3-6.8-2.2-10.1
		c1.4-0.1,2.7,0.2,3.8,1.2c0.4,1.8,0.7,3.6,1.1,5.4c0.7,3.8,0.9,7.6,0.5,11.4c-0.3,3.3-0.9,6.5-1.8,9.6
		C284.1,494.2,283.1,494,282.2,493.7z"/>
	<path class="st70" d="M280.9,375.6c-0.3-0.4-0.7-0.4-1.1-0.6c-7.1-2.5-14.4-4.5-21.8-5.9c-3.5-0.7-7-1.3-10.6-1.6
		c-0.4,0-0.7-0.2-1-0.4c0.8-0.8,1.6-1.6,2.5-2.3c2.9,0.6,5.8,1,8.8,1.6c8.9,1.6,17.5,4.1,26,7.2c0.4,0.2,0.9,0.3,1.2,0.6
		c0,0.1,0,0.2,0,0.2C283.7,375.2,282.4,375.9,280.9,375.6z"/>
	<path class="st147" d="M347.8,475.9c-0.6,0.7-1.2,1.3-2,1.7c-0.9,0-0.8-0.8-0.9-1.4c-0.3-4.7-0.7-9.4-1.8-14
		c-1.2-5.2-2.5-10.3-4.7-15.1c0.2-1.3,0.6-2.5,2-2.9c0.7,0.4,0.9,1.2,1.2,1.9c3.3,8.3,5.6,16.9,6.3,25.8
		C348,473.2,348.4,474.6,347.8,475.9z"/>
	<path class="st148" d="M284.9,374.3c-2.4-0.8-4.9-1.7-7.3-2.5c-7.4-2.5-15-4.4-22.7-5.6c-1.6-0.2-3.1-0.6-4.7-0.7
		c-0.4-0.1-1,0-1.2-0.7c0.5-0.5,0.9-1,1.5-1.3c3.4,0.1,6.7,0.9,10.1,1.6c7.1,1.4,14.1,3.3,21,5.7c2.3,0.8,4.7,1.5,6.9,2.7
		C287.4,374.3,286.2,374.6,284.9,374.3z"/>
	<path class="st149" d="M332.4,486.6c-0.9,0.7-1.9,1.3-3,1.5c-0.4-0.4-0.3-0.8-0.2-1.3c0.1-2.4,0.5-4.8,0.4-7.2
		c-0.3-6.6-0.9-13.2-2.9-19.6c0.2-1.2,1.6-2.3,2.8-2.2c0.5,0.5,0.7,1.2,0.9,1.9c2.1,7.8,3,15.7,2.7,23.7
		C333,484.5,333,485.6,332.4,486.6z"/>
	<path class="st150" d="M250.2,430.1c-2.2-0.3-4.2-1.1-6.3-1.6c-4.2-0.8-8.3-1.5-12.6-1.8c-2.6-0.1-5.2-0.1-7.8-0.2
		c0-0.1,0-0.3,0-0.4c-0.3-2.7-0.1-3,2.6-3c6.8,0.1,13.6,0.7,20.2,2.4c1.1,0.3,2.2,0.4,3.3,0.8C250.2,427.6,250.4,428.8,250.2,430.1z
		"/>
	<path class="st70" d="M360.1,461.3c-0.8-2.2-1.1-4.6-1.7-6.9c-1.5-5.3-3.3-10.4-5.5-15.4c-2-4.6-4.4-9-7.1-13.2
		c-0.7-1.1-0.3-2.2,0.2-3.3c3.4,4.9,6.2,10.1,8.6,15.5c2.9,6.4,5.2,13.1,6.7,20c0.1,0.3,0.2,0.4,0.5,0.5
		C361.5,459.6,360.7,460.4,360.1,461.3z"/>
	<path class="st151" d="M311.1,494.1c0.8-2.2,0.9-4.5,1.2-6.8c0.5-3.6,0.3-7.2,0.2-10.9c-0.1-2.7-0.5-5.4-1-8.1
		c-0.1-0.3-0.2-0.6-0.5-0.8c0.9-1,2.2-1.3,3.3-0.9c0.4,0.6,0.5,1.4,0.6,2.1c0.7,4.2,1.2,8.4,1.1,12.6c-0.1,3.6-0.4,7.2-1.1,10.8
		c-0.1,0.5-0.2,0.9-0.5,1.3C313.3,493.8,312.2,494,311.1,494.1z"/>
	<path class="st152" d="M314.3,493.4c0.1-2.2,0.7-4.2,0.9-6.4c0.2-3.3,0.5-6.7,0.2-10.1c-0.3-3.5-0.7-7-1.4-10.5
		c0.7-1,1.6-1.3,2.8-1c0.4,0.4,0.5,1,0.6,1.5c1.2,6.2,1.6,12.5,1.1,18.8c-0.1,1.8-0.3,3.5-0.6,5.2c-0.1,0.6-0.2,1.2-0.6,1.6
		C316.4,493,315.4,493.3,314.3,493.4z"/>
	<path class="st134" d="M223.9,411.8c0.1-1,0.2-2,0.5-3c0.4-0.3,0.8-0.4,1.3-0.4c7.8-0.2,15.6,0.6,23.2,2.3c0.5,0.1,1,0.2,1.4,0.5
		c0.5,1.2,0.4,2.3-0.5,3.3c-1.6,0.1-3-0.5-4.5-0.8c-6.4-1.2-12.8-1.7-19.3-1.6C225.2,412.2,224.5,412.3,223.9,411.8z"/>
	<path class="st153" d="M290.9,495c0.7-0.1,0.7-0.6,0.9-1.1c1-3.5,1.6-7,1.7-10.6c0.2-4.8-0.2-9.6-1.3-14.3c1.1-0.6,2.1-0.5,3.1,0.2
		c0.9,2,1,4.1,1.2,6.2c0.7,6.1,0.2,12.2-1.4,18.1c-0.1,0.6-0.2,1.2-0.7,1.6C293.3,495.2,292.1,495.3,290.9,495z"/>
	<path class="st154" d="M249.7,426.6c-2.3,0-4.4-1-6.7-1.4c-3.9-0.7-7.8-1.3-11.7-1.4c-1.7-0.1-3.3-0.2-5-0.2c-2.7,0-2.7,0-2.7,2.6
		c-0.4-1.7-0.2-3.4-0.2-5.1c1.7-0.3,3.4-0.3,5.1-0.2c6.6,0.1,13.1,1,19.5,2.6c0.4,0.1,0.8,0.1,1.2,0.1c0.1,0,0.1,0,0.2,0
		C250,424.5,250.2,425.5,249.7,426.6z"/>
	<path class="st37" d="M294.5,495.2c0.5-2.3,1-4.5,1.4-6.8c0.5-3.7,0.8-7.4,0.5-11.2c-0.3-2.7-0.8-5.3-1.1-7.9
		c0.9-0.6,1.8-0.4,2.8-0.1c0.5,0.4,0.6,1.1,0.7,1.7c1.4,7.6,1.2,15.2-0.7,22.8c-0.1,0.6-0.3,1.2-0.8,1.5c-0.8,0-1.6,0-2.3,0.1
		C294.8,495.2,294.6,495.2,294.5,495.2z"/>
	<path class="st62" d="M244.3,369.3c1.8,0.7,3.7,0.7,5.5,0.9c4.2,0.6,8.3,1.4,12.5,2.3c4.6,1,9.1,2.3,13.6,3.8
		c0.6,0.2,1.1,0.4,1.6,0.7c-0.6,1-1.6,1.3-2.6,1.5c-8.3-3-17-4.7-25.7-6c-1.9-0.3-3.9-0.5-5.8-0.6c-0.4,0-0.9-0.1-0.8-0.7
		C243,370.6,243.5,369.9,244.3,369.3z"/>
	<path class="st79" d="M231.6,386.9c0.3-0.8,0.7-1.6,1.2-2.3c0.8-0.6,1.8-0.4,2.7-0.3c4.2,0.3,8.3,0.7,12.5,1.3
		c4,0.6,7.9,1.4,11.8,2.3c0.6,0.1,1.4,0.2,1.7,0.9c-0.2,1.1-0.8,1.8-1.8,2.2c-3.4-0.6-6.7-1.5-10.1-2c-5.2-0.8-10.3-1.5-15.5-1.6
		C233.2,387.5,232.3,387.5,231.6,386.9z"/>
	<path class="st155" d="M338.5,447c1.1,1.3,1.4,3,2,4.5c1.9,5.2,3.2,10.5,4,16c0.4,3,0.8,6,0.8,9c0,0.5,0,0.9,0.5,1.2
		c-0.7,0.8-1.5,1.3-2.3,1.9c-0.6-0.2-0.5-0.8-0.6-1.3c-0.2-2.1-0.3-4.2-0.5-6.4c-0.7-7.4-2.4-14.6-4.9-21.6
		c-0.1-0.4-0.3-0.8-0.4-1.2C337.1,448.2,337.5,447.4,338.5,447z"/>
	<path class="st156" d="M223.9,411.8c2.7,0,5.4-0.1,8,0c4.1,0.1,8.2,0.6,12.2,1.4c1.9,0.4,3.7,0.8,5.6,1.2c0.4,0.9,0.6,1.8-0.3,2.5
		c-2-0.1-4-0.8-6-1.1c-3.3-0.5-6.6-0.9-9.9-1.2c-3.3-0.3-6.7-0.1-10-0.2C223.7,413.4,223.8,412.6,223.9,411.8z"/>
	<path class="st157" d="M261.3,389.2c-0.4-1-1.4-0.8-2.1-1c-4.9-1.2-10-2.1-15-2.8c-2.1-0.3-4.3-0.3-6.4-0.6
		c-1.6-0.2-3.2-0.3-4.9-0.3c0.3-0.8,0.7-1.6,1.3-2.3c0.6-0.4,1.2-0.4,1.8-0.3c8.5,0.6,16.9,1.8,25.1,4c0.7,0.2,1.4,0.3,1.9,0.9
		C263.1,387.9,262.4,388.8,261.3,389.2z"/>
	<path class="st91" d="M239.4,374.8c0.4-0.7,0.9-1.3,1.5-1.8c2.1-0.2,4.1,0.3,6.1,0.5c8,1,15.9,2.6,23.7,5c0.7,0.2,1.4,0.3,1.9,0.9
		c-0.1,1.3-1.3,1.2-2.1,1.7c-1.6,0.1-3-0.6-4.5-1c-7.5-2-15.2-3.5-22.9-4.2c-0.8-0.1-1.7-0.2-2.5-0.2
		C240,375.6,239.4,375.6,239.4,374.8z"/>
	<path class="st158" d="M228.1,394.9c0.2-0.8,0.5-1.5,0.9-2.2c1.6-0.7,3.2-0.4,4.8-0.3c6.4,0.4,12.8,1.2,19.1,2.5
		c0.9,0.2,1.8,0.3,2.6,0.8c0.3,0.1,0.5,0.3,0.6,0.6c0,1-0.3,1.8-1.3,2.2c-2.8-0.3-5.5-1.1-8.2-1.5c-4.9-0.7-9.8-1.3-14.8-1.4
		C230.6,395.5,229.3,395.6,228.1,394.9z"/>
	<path class="st159" d="M231.6,386.9c9.5,0.5,18.9,1.6,28.2,4c-0.2,1.1-0.6,1.9-1.8,2.2c-3-0.5-5.9-1.3-8.9-1.8
		c-5.3-0.8-10.6-1.5-15.9-1.6c-1,0-1.9-0.1-2.8-0.3C230.7,388.5,231.1,387.7,231.6,386.9z"/>
	<path class="st156" d="M304.3,495c0-1.8,0.6-3.5,0.9-5.3c0.8-4.9,0.8-9.8,0.4-14.7c-0.1-2.1-0.7-4.1-0.8-6.2
		c0.6-0.5,1.2-0.7,1.9-0.3c0.3,0.1,0.5,0.2,0.6,0.5c1.1,5.4,1.2,10.9,0.9,16.3c-0.2,3.1-0.9,6.2-1.4,9.3
		C306,495.1,305.1,494.9,304.3,495z"/>
	<path class="st160" d="M322.1,462.8c0.9,1.3,0.9,2.8,1.2,4.2c0.9,4.7,1.4,9.5,1.3,14.3c-0.1,3.1-0.1,6.3-0.9,9.4
		c-0.7,0.4-1.4,0.7-2.3,0.7c-0.4-0.4-0.3-0.9-0.2-1.3c0.7-4.5,0.7-9,0.5-13.5c-0.1-3.6-0.7-7.2-1.4-10.7c-0.1-0.6-0.3-1.2-0.2-1.9
		C320.4,463.2,321,462.6,322.1,462.8z"/>
	<path class="st100" d="M272.6,379.6c-5-1.8-10.1-2.9-15.3-4c-5.2-1.1-10.4-1.8-15.6-2.3c-0.3,0-0.6-0.2-0.8-0.3
		c0.4-0.7,0.9-1.3,1.5-1.8c0.1,0.1,0.3,0.4,0.4,0.4c5.8,0.2,11.4,1.3,17,2.4c4.7,0.9,9.3,2.1,13.7,3.7c0.4,0.1,0.8,0.4,1.2,0.5
		C274.4,379.3,273.6,379.7,272.6,379.6z"/>
	<path class="st161" d="M347.8,475.9c-0.2-7.6-1.6-15-3.9-22.3c-0.8-2.5-1.7-5.1-2.7-7.5c-0.3-0.7-0.7-1.3-1.1-2
		c-0.1-1.1,0.3-1.9,1.3-2.5c1.5,3.9,3.2,7.8,4.4,11.8c1.4,4.7,2.5,9.6,3.2,14.5c0.2,1.7,0.5,3.5,0.5,5.2c0,0.3,0,0.6,0.4,0.7
		C349.3,474.6,348.6,475.3,347.8,475.9z"/>
	<path class="st162" d="M352.5,471.1c-0.7-1.8-0.6-3.7-0.9-5.5c-1.1-7-3-13.7-5.6-20.2c-0.8-2.1-1.7-4.2-2.7-6.2
		c-0.2-0.3-0.2-0.7-0.3-1.1c-0.3-0.9-0.2-1.7,0.8-2.2c1.6,2.3,2.6,5,3.7,7.5c3.4,8,5.6,16.3,6.7,24.9c0,0.4,0.1,0.7-0.1,1.1
		C353.7,470.1,353.1,470.6,352.5,471.1z"/>
	<path class="st97" d="M228.1,394.9c9.1,0.3,18.1,1.1,26.9,3.3c0.1,1.2-0.4,2.2-1.4,2.5c-2.5-0.8-5-1.2-7.6-1.6
		c-5.1-0.8-10.2-1.4-15.3-1.3c-1.1,0-2.3-0.3-3.3-0.8C227.5,396.2,227.7,395.6,228.1,394.9z"/>
	<path class="st163" d="M337.2,449c1.5,3,2.4,6.2,3.2,9.4c1.2,4.5,2,9,2.4,13.6c0.2,2.2,0.3,4.4,0.5,6.6c0,0.3,0.1,0.7,0.2,1
		c-0.7,0.6-1.4,1.2-2.2,1.7c-0.1-2.8,0.1-5.6-0.3-8.4c-0.4-3.4-0.9-6.8-1.6-10.2c-0.9-4.1-2.2-8-3.5-12
		C335.9,449.7,336.3,449.2,337.2,449z"/>
	<path class="st66" d="M225.6,403c0-0.8,0.3-1.5,0.6-2.3c0.4-0.4,0.8-0.4,1.3-0.4c8.1-0.1,16.1,0.8,24,2.6c0.4,0.1,0.9,0.2,1.2,0.6
		c0.2,1,0,1.8-0.9,2.3c-0.7,0-1.3-0.1-2-0.3c-7.3-1.5-14.6-2.4-22.1-2.2C226.9,403.4,226.2,403.5,225.6,403z"/>
	<path class="st100" d="M354.1,469.4c-0.6-3.2-1.1-6.4-1.8-9.6c-1.2-5.8-3.1-11.3-5.4-16.7c-0.9-2.2-1.8-4.5-3.1-6.5
		c-0.1-0.2-0.1-0.4-0.1-0.6c-0.4-0.7-0.2-1.2,0.5-1.6c1.5,1.4,2.1,3.4,2.9,5.2c3.2,6.7,5.4,13.7,7,20.9c0.4,1.8,0.6,3.6,0.9,5.3
		c0.1,0.6,0.5,1,0.7,1.5C355.3,468.1,354.7,468.8,354.1,469.4z"/>
	<path class="st92" d="M333.7,453.2c1.1,2.2,1.6,4.6,2.2,7c1.3,5,2,10.2,2.3,15.4c0.2,2.5,0.1,5,0.2,7.5c-0.6,0.5-1.3,1-2,1.3
		c-0.5-0.6-0.4-1.3-0.4-2c0.2-6.4-0.4-12.8-1.7-19c-0.6-2.7-1.3-5.5-2.2-8.1C332.1,454.2,332.7,453.5,333.7,453.2z"/>
	<path class="st94" d="M332.4,486.6c0.2-2.4,0.3-4.7,0.3-7.1c-0.1-6.9-1.1-13.6-2.9-20.2c-0.1-0.6-0.4-1.1-0.7-1.6
		c0.4-1.2,1-1.6,2-1.3c1.1,2.5,1.6,5.3,2.2,8c1.2,5.5,1.6,11.2,1.6,16.8c0,1.5,0,3-0.6,4.4C333.8,486,333.2,486.5,332.4,486.6z"/>
	<path class="st93" d="M334.4,485.6c-0.1-1.5,0.2-2.9,0.2-4.4c0-8.5-1.2-16.9-3.8-25.1c0.1-0.7,0.5-1.1,1.2-1.2
		c1.2,1.1,1.2,2.6,1.5,4c1.3,4.9,2.2,9.9,2.6,15.1c0.3,3.5,0.1,6.9,0.2,10.4C335.8,484.9,335.2,485.3,334.4,485.6z"/>
	<path class="st95" d="M326.6,459.8c0.4,0,0.5,0.2,0.5,0.6c1.1,4.1,1.9,8.3,2.3,12.5c0.2,2.9,0.6,5.8,0.5,8.7
		c-0.1,2.2-0.3,4.4-0.5,6.6c-0.6,0.5-1.3,0.8-2,1c0.5-4,0.7-8,0.5-12c-0.2-5.3-1-10.6-2.4-15.7c-0.1-0.2-0.2-0.5-0.3-0.7
		C325.3,459.9,325.9,459.8,326.6,459.8z"/>
	<path class="st69" d="M263.1,387.2c-1.9-1.1-4.1-1.2-6.2-1.8c-3.4-0.9-6.9-1.5-10.4-1.9c-2.8-0.4-5.5-0.8-8.3-0.9
		c-1.4,0-2.7-0.4-4.1-0.3c0.4-0.6,0.7-1.2,1.1-1.7c1.3-0.6,2.6-0.1,3.8,0c6,0.4,12,1.2,18,2.6c2.6,0.6,5.1,1.1,7.6,2
		C264.9,386,264.4,386.7,263.1,387.2z"/>
	<path class="st64" d="M224.7,407c0.2-0.8,0.3-1.5,0.5-2.3c0.4-0.4,0.8-0.4,1.3-0.4c7.9-0.1,15.8,0.7,23.5,2.4
		c0.4,0.1,0.9,0.2,1.2,0.6c0.1,1.1,0.3,2.2-0.8,2.9c-0.5-0.5-1.1-0.8-1.9-1c-5.1-1-10.1-1.7-15.3-2
		C230.4,407.2,227.5,407.3,224.7,407z"/>
	<path class="st164" d="M317.3,492.7c0.3-2.5,0.7-4.9,0.9-7.4c0.2-3.1,0.2-6.2,0.1-9.2c-0.2-3-0.5-5.9-1.2-8.9
		c-0.1-0.6-0.1-1.2-0.5-1.6c0.4-1,1.1-1,2-0.8c0.5,0.4,0.5,1,0.7,1.6c1.1,5.1,1.6,10.3,1.5,15.6c-0.1,3-0.3,5.9-0.8,8.9
		c-0.1,0.5-0.2,1-0.5,1.4C318.7,492.4,318,492.6,317.3,492.7z"/>
	<path class="st49" d="M319.4,492.1c0.3-3,0.7-6,0.9-9c0.1-1.9,0.1-3.9-0.1-5.9c-0.2-2.2-0.2-4.4-0.6-6.6c-0.3-2-0.4-4-1.3-5.9
		c0.4-0.8,1.1-1.2,2.1-1c0.4,2.1,0.7,4.2,1,6.3c0.4,2.6,0.7,5.3,0.7,7.9c0.1,4.5,0,9-0.8,13.5C320.8,491.8,320.1,492,319.4,492.1z"
		/>
	<path class="st33" d="M239.4,374.8c0.2,0.4,0.5,0.5,0.9,0.5c8.2,0.5,16.3,2,24.3,4c2,0.5,3.9,1.4,6,1.5c-0.3,1-1.1,1.4-2,1.5
		c-1.1,0-2.2-0.5-3.3-0.8c-7.7-2.1-15.6-3.5-23.6-4.3c-1.3-0.1-2.7,0.2-3.9-0.5C238.3,376.1,238.8,375.4,239.4,374.8z"/>
	<path class="st110" d="M224.7,407c2.2-0.5,4.4-0.4,6.6-0.2c2,0.2,4.1,0.1,6.1,0.4c4.1,0.5,8.3,1,12.4,2c0.7,0.2,0.8,0.5,0.8,1.1
		c0.3,0.4,0.4,0.8-0.2,1c-2.5-0.5-5.1-1-7.6-1.4c-2.7-0.4-5.4-0.7-8-0.9c-3.4-0.3-6.8-0.2-10.3-0.2
		C224.3,408.1,224.5,407.6,224.7,407z"/>
	<path class="st161" d="M237.9,376.8c6.3,0.2,12.5,1.2,18.6,2.4c3.9,0.8,7.7,1.7,11.5,2.8c0.3,0.1,0.6,0.1,0.9,0.1
		c-0.3,1.1-1,1.5-2,1.6c-5.4-1.4-10.8-2.7-16.3-3.6c-4.2-0.7-8.4-1.1-12.6-1.5c-0.4,0-0.8,0-1.1-0.4
		C237.1,377.8,237.4,377.2,237.9,376.8z"/>
	<path class="st61" d="M227.4,396.9c4,0.8,8,0.5,12,0.9c4.4,0.5,8.8,1.2,13.1,2.1c0.5,0.1,1.1,0,1.3,0.8c0.1,0.8,0,1.5-1,1.6
		c-8-1.8-16.1-2.9-24.3-2.7c-0.7,0-1.4,0.1-1.9-0.4C226.7,398.4,227,397.6,227.4,396.9z"/>
	<path class="st165" d="M230.4,389.4c0.9-0.6,1.9,0,2.8,0c8.5,0.2,16.9,1.5,25.1,3.5c0,0.9-0.4,1.5-1.2,1.8c-0.4,0.1-0.8,0-1.2-0.1
		c-6.6-1.6-13.3-2.5-20-3c-1.7-0.1-3.3,0-5-0.3c-0.4-0.1-0.8,0-1.2-0.4C229.8,390.4,230,389.8,230.4,389.4z"/>
	<path class="st166" d="M251.2,407.5c-3.8-0.9-7.7-1.6-11.6-2c-4.8-0.6-9.6-0.8-14.5-0.7c0-0.6,0.2-1.2,0.4-1.8c1.4,0,2.8,0,4.1,0
		c7.4,0,14.6,1.1,21.8,2.6c0.1,0,0.2,0.2,0.3,0.2C251.9,406.4,252,407.1,251.2,407.5z"/>
	<path class="st104" d="M236.8,378.3c7.6,0.4,15.1,1.5,22.6,3.2c2.6,0.6,5.2,1.2,7.7,2.1c-0.2,0.8-0.9,1-1.5,1.3
		c-0.6,0.1-1.1-0.1-1.6-0.2c-7.9-2.1-15.9-3.5-24-4.2c-1-0.1-2-0.2-3-0.3c-0.4,0-1,0.1-1.1-0.6C236.1,379.1,236.4,378.7,236.8,378.3
		z"/>
	<path class="st167" d="M229.7,390.9c6.5,0.3,13.1,0.7,19.5,1.9c2.7,0.5,5.3,1.2,8,1.6c0,0.9-0.4,1.6-1.3,2c-0.9-1.1-2.2-1-3.3-1.2
		c-4.6-0.9-9.3-1.7-14-2.1c-3.2-0.3-6.5-0.5-9.7-0.5C229.2,392.1,229.4,391.5,229.7,390.9z"/>
	<path class="st168" d="M226.6,399.2c2,0,3.9,0,5.9,0c5,0.1,10,0.7,15,1.6c1.5,0.3,2.9,0.6,4.4,0.9c0.5,0.1,0.9,0.2,1.2,0.6
		c0.2,0.6,0.2,1.2-0.6,1.4c-2-0.9-4.2-1.1-6.3-1.5c-6.6-1.1-13.3-1.7-20.1-1.6C226.2,400.2,226.3,399.7,226.6,399.2z"/>
	<path class="st73" d="M236.9,463.8c1.8,0.1,3.1,1.1,4.4,2.1c3.2,2.5,6.1,5.3,7.5,9.3c0.2,0.6,0.7,1.2,0.2,1.9
		C244.3,473.2,240.3,468.8,236.9,463.8z"/>
	<path class="st169" d="M235.9,379.6c1.2,0.6,2.6,0.3,3.9,0.4c8.1,0.6,16.1,2.2,24,4.1c0.6,0.2,1.2,0.5,1.9,0.5
		c0.1,0.7-0.2,0.9-0.8,0.8c-9.7-2.7-19.6-4.2-29.7-4.8C235.5,380.3,235.7,379.9,235.9,379.6z"/>
	<path class="st9" d="M303.3,346.9c-0.7-0.1-1.4,0.2-2.1-0.2C302,346.7,302.7,346.6,303.3,346.9z"/>
	<path class="st39" d="M363.8,303.5c0.4,0,0.9-0.2,1.3,0.2C364.6,303.7,364.2,303.7,363.8,303.5z"/>
	<path class="st170" d="M298,469.4c0.8,0,1.6,0,2.5-0.1c0.6,0.1,0.7,0.6,0.8,1.1c0.7,3.9,1.1,7.8,1,11.7c-0.2,4.2-0.8,8.3-1.7,12.4
		c-0.1,0.5-0.4,0.7-0.9,0.7c-0.8,0-1.6,0-2.4,0c1.6-5.6,2.3-11.3,2-17.1C299.1,475.1,298.7,472.2,298,469.4z"/>
</g>
</svg>
